<svg width="621" height="169" xmlns="http://www.w3.org/2000/svg" xmlns:xlink="http://www.w3.org/1999/xlink" ><g id="svgg"><path id="path0" d="M377.268 3.446 C 376.309 5.341,375.523 7.353,375.523 7.917 C 375.523 8.481,375.261 9.104,374.940 9.302 C 374.619 9.501,373.489 12.054,372.428 14.976 C 363.609 39.273,351.047 58.567,351.047 47.814 C 351.047 44.405,350.262 43.841,346.112 44.270 C 343.861 44.502,342.069 44.339,341.085 43.812 C 339.911 43.184,339.073 43.162,337.476 43.719 C 336.332 44.118,334.322 44.444,333.010 44.444 C 330.320 44.444,326.380 46.750,326.038 48.524 C 325.553 51.044,326.993 51.530,334.944 51.530 C 344.135 51.530,344.541 51.788,343.396 56.904 C 341.605 64.909,346.257 68.848,349.883 62.396 C 350.653 61.025,351.615 59.903,352.019 59.903 C 353.406 59.903,355.460 57.004,355.669 54.750 C 355.840 52.904,356.169 52.456,357.488 52.276 C 359.954 51.940,361.134 50.519,364.094 44.320 C 368.298 35.517,370.438 39.195,367.538 50.242 C 362.001 71.335,359.798 86.953,362.146 88.469 C 363.771 89.519,364.979 88.027,366.799 82.721 C 368.176 78.707,369.481 75.596,370.974 72.765 C 371.260 72.222,371.705 70.772,371.962 69.544 C 372.219 68.316,372.792 66.731,373.234 66.023 C 373.677 65.314,374.414 63.575,374.871 62.158 C 376.001 58.654,380.466 49.804,381.391 49.231 C 381.804 48.977,385.469 48.693,389.537 48.600 C 397.660 48.416,399.874 47.557,398.214 45.238 C 397.775 44.624,397.251 43.688,397.051 43.156 C 395.684 39.531,394.685 39.299,390.196 41.565 C 387.337 43.009,386.265 43.221,383.461 42.897 C 380.090 42.508,377.456 44.157,377.456 46.656 C 377.456 47.068,376.333 49.710,374.960 52.527 C 373.588 55.344,372.264 58.301,372.018 59.098 C 371.451 60.940,369.726 60.998,369.726 59.176 C 369.726 58.421,370.288 55.595,370.975 52.896 C 372.481 46.978,374.275 37.698,374.851 32.850 C 375.082 30.902,376.163 26.409,377.253 22.866 C 379.974 14.021,380.676 10.803,380.676 7.188 C 380.676 4.716,381.002 3.784,382.287 2.576 C 384.482 0.514,384.316 -0.000,381.455 0.000 C 379.150 0.000,378.915 0.194,377.268 3.446 M59.738 11.127 C 55.219 15.812,50.788 20.660,49.890 21.900 C 46.255 26.920,41.637 32.771,37.946 37.031 C 35.800 39.507,33.892 42.295,33.706 43.226 C 33.379 44.858,26.906 46.514,25.134 45.419 C 23.589 44.464,6.953 44.944,5.924 45.974 C 4.175 47.723,5.671 49.200,9.728 49.729 C 11.640 49.979,15.668 50.510,18.680 50.910 C 29.028 52.284,41.224 50.081,41.224 46.837 C 41.224 46.505,42.383 44.849,43.800 43.156 C 45.217 41.464,46.386 39.539,46.397 38.880 C 46.436 36.568,53.610 27.053,55.315 27.053 C 56.299 27.053,56.223 30.228,55.191 32.206 C 54.729 33.092,53.800 35.411,53.126 37.359 C 52.453 39.308,51.441 41.626,50.878 42.512 C 49.996 43.899,48.626 47.856,46.308 55.717 C 45.995 56.779,44.790 60.692,43.632 64.412 C 39.091 78.988,42.015 89.403,47.686 78.859 C 48.785 76.816,49.884 75.612,50.771 75.480 C 51.528 75.368,52.703 74.571,53.381 73.709 C 54.059 72.847,55.078 72.142,55.646 72.142 C 56.217 72.142,57.760 70.381,59.096 68.206 C 60.426 66.042,62.378 63.071,63.433 61.604 C 64.734 59.798,65.382 58.097,65.441 56.332 C 65.648 50.250,69.565 48.976,69.565 54.990 C 69.565 56.282,72.397 58.615,73.964 58.615 C 75.542 58.615,77.932 55.301,77.936 53.108 C 77.941 50.700,79.057 50.315,84.945 50.690 C 90.053 51.016,90.599 50.934,91.740 49.662 C 93.525 47.672,92.229 46.706,87.729 46.669 C 85.710 46.653,83.104 46.223,81.938 45.713 C 79.942 44.840,79.609 44.895,76.273 46.641 C 73.379 48.156,72.469 48.370,71.308 47.804 C 65.345 44.896,64.316 45.201,61.585 50.688 C 60.561 52.745,59.465 54.863,59.150 55.395 C 58.835 55.926,58.407 56.868,58.199 57.488 C 57.991 58.108,57.470 58.615,57.042 58.615 C 56.112 58.615,53.815 61.057,53.256 62.641 C 52.629 64.419,50.630 64.108,51.186 62.319 C 51.433 61.522,52.055 59.193,52.567 57.143 C 53.079 55.094,54.165 51.905,54.981 50.058 C 55.796 48.210,57.415 43.800,58.579 40.258 C 59.743 36.715,61.063 33.092,61.514 32.206 C 61.964 31.320,62.673 28.857,63.088 26.731 C 63.503 24.605,64.240 21.997,64.725 20.934 C 67.070 15.802,68.277 12.834,68.277 12.204 C 68.277 11.823,68.895 10.074,69.651 8.317 C 70.974 5.242,70.982 5.074,69.873 3.849 C 68.281 2.090,68.845 1.685,59.738 11.127 M67.014 8.439 C 66.307 9.997,65.722 11.638,65.715 12.084 C 65.702 12.821,64.557 15.662,62.149 20.934 C 61.663 21.997,60.927 24.605,60.513 26.731 C 60.098 28.857,59.460 31.162,59.094 31.854 C 58.728 32.547,57.207 36.605,55.714 40.872 C 54.221 45.140,52.384 50.370,51.633 52.496 C 47.989 62.803,48.024 66.345,51.768 66.345 C 52.740 66.345,56.039 63.018,56.039 62.037 C 56.039 61.572,56.382 61.192,56.802 61.192 C 57.823 61.192,60.548 58.591,60.548 57.616 C 60.548 57.189,60.965 56.494,61.475 56.071 C 61.985 55.647,62.515 54.670,62.652 53.898 C 62.790 53.127,62.878 53.945,62.849 55.717 C 62.810 58.110,62.369 59.516,61.135 61.192 C 60.221 62.432,58.628 64.822,57.595 66.504 C 56.562 68.187,55.405 69.563,55.024 69.564 C 54.643 69.565,53.650 70.290,52.818 71.176 C 51.986 72.061,50.975 72.786,50.572 72.786 C 49.632 72.786,46.873 75.718,45.241 78.450 L 43.973 80.572 44.133 75.230 C 44.250 71.315,44.829 68.252,46.299 63.768 C 47.403 60.403,48.565 56.779,48.880 55.717 C 51.303 47.561,52.572 43.900,53.454 42.512 C 54.017 41.626,55.029 39.308,55.703 37.359 C 56.376 35.411,57.305 33.092,57.767 32.206 C 59.364 29.145,57.725 24.477,55.054 24.477 C 53.219 24.477,43.800 36.595,43.800 38.956 C 43.800 39.574,42.641 41.464,41.224 43.156 C 39.807 44.849,38.647 46.521,38.647 46.872 C 38.647 47.994,24.704 49.104,19.002 48.437 C 14.086 47.861,14.286 47.835,23.345 47.866 C 33.490 47.900,36.071 47.062,36.071 43.737 C 36.071 42.429,39.372 37.925,44.088 32.799 C 45.907 30.822,48.532 27.488,49.923 25.391 C 52.060 22.168,67.608 5.179,68.127 5.499 C 68.222 5.557,67.721 6.880,67.014 8.439 M200.457 11.897 C 196.525 15.689,195.290 16.506,191.778 17.636 C 191.152 17.838,190.386 18.662,190.075 19.468 C 189.763 20.274,188.753 21.637,187.830 22.496 C 186.907 23.354,186.151 24.675,186.151 25.430 C 186.151 27.153,183.463 30.857,181.509 31.826 C 180.634 32.260,179.951 33.259,179.832 34.277 C 179.568 36.545,175.010 41.224,173.064 41.224 C 170.571 41.224,164.657 43.200,163.244 44.505 C 162.512 45.180,161.171 45.733,160.263 45.733 C 157.996 45.733,156.625 47.400,157.869 48.644 C 160.174 50.950,167.311 50.552,174.386 47.724 C 178.012 46.274,181.373 45.089,181.855 45.089 C 182.820 45.089,184.863 43.081,184.863 42.133 C 184.863 41.803,185.443 41.172,186.151 40.729 C 186.884 40.272,187.440 39.227,187.440 38.307 C 187.440 36.713,189.971 32.064,191.278 31.256 C 191.647 31.028,191.948 30.113,191.948 29.223 C 191.948 25.360,197.264 19.332,200.676 19.326 C 202.420 19.323,203.543 18.129,203.543 16.276 C 203.543 14.180,205.251 13.736,206.999 15.377 C 207.801 16.131,208.794 16.747,209.207 16.747 C 210.174 16.747,217.072 23.741,217.059 24.709 C 217.045 25.794,216.441 26.470,212.834 29.444 C 209.183 32.453,208.052 35.058,208.052 40.457 C 208.052 46.173,212.999 49.578,213.749 44.379 C 213.872 43.529,214.196 42.544,214.470 42.190 C 214.745 41.836,215.159 40.488,215.392 39.195 C 215.924 36.240,217.324 33.402,218.997 31.888 C 219.708 31.245,220.290 30.031,220.290 29.192 C 220.290 28.193,220.800 27.471,221.766 27.104 C 224.916 25.906,225.110 24.690,222.421 22.992 C 219.109 20.901,218.132 19.611,218.577 17.911 C 219.115 15.852,217.957 14.798,215.660 15.258 C 213.546 15.680,212.587 14.831,212.570 12.520 C 212.555 10.460,209.302 7.729,206.863 7.729 C 205.175 7.729,203.961 8.519,200.457 11.897 M377.456 13.005 C 377.026 14.886,375.718 19.614,374.550 23.510 C 373.382 27.407,372.271 32.293,372.082 34.367 C 371.658 39.007,371.427 39.260,369.374 37.331 C 367.998 36.038,367.543 35.918,366.497 36.571 C 365.206 37.377,365.657 34.975,367.130 33.193 C 367.948 32.205,372.839 20.952,374.699 15.781 C 377.477 8.058,378.920 6.605,377.456 13.005 M210.023 12.635 C 210.493 14.951,209.037 15.039,207.027 12.818 C 205.388 11.006,200.966 13.208,200.966 15.836 C 200.966 16.182,200.024 16.806,198.873 17.223 C 197.037 17.887,197.294 17.508,200.966 14.135 C 206.037 9.478,209.274 8.942,210.023 12.635 M194.108 20.773 C 191.354 23.718,189.372 27.239,189.372 29.185 C 189.372 30.096,189.070 31.028,188.702 31.256 C 187.604 31.935,184.865 36.600,184.843 37.829 C 184.824 38.904,182.126 42.512,181.342 42.512 C 181.142 42.512,178.054 43.671,174.479 45.089 C 167.805 47.734,161.635 48.681,163.630 46.754 C 164.714 45.707,170.831 43.800,173.106 43.800 C 174.756 43.800,180.709 38.341,182.342 35.330 C 182.843 34.406,184.485 32.139,185.990 30.294 C 187.496 28.448,188.728 26.296,188.728 25.511 C 188.728 24.105,191.693 20.810,194.203 19.428 C 196.221 18.317,196.207 18.529,194.108 20.773 M219.228 23.089 C 220.791 24.720,220.873 25.013,219.978 25.756 C 219.124 26.465,219.035 26.427,219.390 25.501 C 219.654 24.815,219.259 23.826,218.327 22.834 C 217.512 21.966,216.986 21.256,217.159 21.256 C 217.331 21.256,218.262 22.081,219.228 23.089 M325.604 27.193 C 324.895 27.582,323.893 28.096,323.377 28.335 C 322.086 28.932,318.418 36.239,317.135 40.770 C 315.566 46.310,312.448 43.553,312.409 36.590 C 312.404 35.631,311.858 34.476,311.188 34.007 C 310.522 33.541,309.870 32.613,309.739 31.946 C 309.023 28.298,304.026 30.441,304.026 34.397 C 304.026 35.208,303.457 36.386,302.762 37.015 C 302.067 37.644,301.163 39.211,300.753 40.497 C 299.659 43.931,296.112 50.242,295.276 50.242 C 294.534 50.242,293.720 43.336,293.720 37.040 C 293.720 30.905,288.768 29.413,285.158 34.461 C 281.516 39.552,268.599 60.139,268.599 60.851 C 268.599 64.380,272.792 63.754,276.626 59.652 C 279.542 56.533,284.634 54.106,288.265 54.106 C 288.395 54.106,288.589 55.743,288.696 57.743 C 289.015 63.756,293.167 64.524,293.599 58.651 C 293.827 55.554,295.942 55.307,298.213 58.112 C 300.274 60.656,302.919 57.224,305.919 48.113 C 307.154 44.361,308.484 45.233,310.871 51.358 C 313.052 56.954,315.227 60.548,316.434 60.548 C 317.476 60.548,320.773 57.249,320.773 56.207 C 320.773 55.723,321.349 54.256,322.054 52.946 C 322.758 51.636,323.928 49.114,324.653 47.343 C 325.379 45.572,326.406 43.398,326.935 42.512 C 327.464 41.626,328.483 39.704,329.201 38.241 C 330.300 35.998,330.884 35.520,332.922 35.194 C 339.103 34.205,339.650 29.457,333.623 29.108 C 331.098 28.962,329.947 28.576,329.305 27.659 C 328.325 26.260,327.492 26.155,325.604 27.193 M216.324 32.109 C 214.199 34.513,213.362 36.180,212.835 39.051 C 211.985 43.687,210.628 44.661,210.628 40.637 C 210.628 35.415,211.671 32.817,214.717 30.454 C 217.839 28.033,218.931 29.158,216.324 32.109 M272.629 31.442 C 271.652 32.793,270.315 35.040,269.657 36.434 C 268.999 37.829,267.713 40.419,266.798 42.190 C 265.883 43.961,264.554 46.643,263.845 48.148 C 261.560 52.999,260.293 51.602,260.352 44.293 C 260.431 34.400,256.137 34.785,249.630 45.253 C 248.585 46.934,247.353 48.309,246.892 48.309 C 245.865 48.309,245.865 48.311,247.117 43.156 C 249.276 34.269,248.018 30.560,244.169 34.467 C 242.441 36.222,242.210 36.994,241.572 43.156 C 240.150 56.886,239.744 60.263,239.320 61.884 C 238.649 64.449,240.638 65.844,242.206 63.908 C 242.842 63.123,243.624 62.480,243.944 62.480 C 244.737 62.480,247.541 59.312,248.553 57.273 C 251.993 50.341,254.692 50.557,255.306 57.814 C 255.896 64.794,260.355 68.858,261.428 63.394 C 261.801 61.491,268.831 51.119,270.692 49.725 C 271.312 49.260,271.820 48.418,271.820 47.853 C 271.820 47.288,273.054 44.623,274.563 41.931 C 280.381 31.550,280.346 31.731,276.861 29.992 C 274.306 28.718,274.693 28.586,272.629 31.442 M328.795 30.241 C 329.530 31.053,330.988 31.575,332.921 31.718 L 335.910 31.938 333.213 32.470 C 330.176 33.069,328.665 34.444,326.426 38.647 C 325.577 40.242,324.551 42.126,324.147 42.834 C 323.743 43.543,322.928 45.282,322.336 46.699 C 321.745 48.116,320.597 50.725,319.786 52.496 C 318.974 54.267,318.140 56.248,317.931 56.897 C 317.233 59.070,315.960 57.598,313.688 51.991 C 309.111 40.698,306.310 40.553,302.057 51.388 L 299.964 56.722 298.613 55.488 C 296.302 53.377,294.445 53.162,292.699 54.802 C 291.536 55.894,291.143 56.019,291.143 55.297 C 291.143 50.118,281.793 51.255,276.358 57.095 C 274.590 58.994,272.691 60.548,272.137 60.548 C 270.847 60.548,270.954 60.350,278.497 48.765 C 281.775 43.732,285.144 38.382,285.986 36.876 C 287.189 34.723,287.882 34.138,289.233 34.138 L 290.950 34.138 291.392 42.029 C 292.182 56.150,297.590 56.013,302.828 41.739 C 303.569 39.720,304.721 37.574,305.388 36.970 C 306.056 36.365,306.602 35.141,306.602 34.248 L 306.602 32.626 308.213 34.138 C 309.098 34.971,309.823 36.219,309.823 36.914 C 309.823 40.786,313.205 47.021,315.306 47.021 C 316.675 47.021,318.716 44.135,319.685 40.831 C 321.211 35.625,323.807 30.660,325.415 29.870 C 327.501 28.844,327.534 28.848,328.795 30.241 M106.877 30.531 C 106.674 30.736,102.489 31.062,97.577 31.255 C 86.481 31.690,84.529 32.866,89.105 36.356 C 91.169 37.930,91.440 37.970,96.029 37.375 C 104.453 36.281,104.495 36.333,100.185 42.552 C 97.126 46.964,92.613 55.796,91.862 58.838 C 90.911 62.694,94.227 63.716,96.889 60.386 C 97.810 59.235,99.257 57.568,100.106 56.683 C 102.256 54.440,104.992 48.724,104.992 46.477 C 104.992 45.446,105.446 44.225,106.001 43.765 C 107.326 42.665,108.857 39.664,108.857 38.165 C 108.857 36.808,111.999 35.427,115.083 35.427 C 117.916 35.427,119.816 33.227,118.295 31.707 C 117.203 30.615,107.755 29.641,106.877 30.531 M126.780 32.689 C 125.078 34.527,117.635 44.101,115.942 46.631 C 115.411 47.425,114.106 49.215,113.043 50.610 C 107.115 58.388,106.526 61.192,110.818 61.192 C 112.208 61.192,113.316 60.379,115.648 57.649 L 118.675 54.106 123.359 54.106 C 128.495 54.106,128.824 54.356,128.824 58.246 C 128.824 62.398,132.640 63.742,134.033 60.081 L 134.713 58.293 136.486 60.465 C 138.848 63.358,143.251 64.159,148.640 62.677 C 150.672 62.118,153.464 61.482,154.844 61.265 C 156.568 60.993,157.778 60.298,158.709 59.045 L 160.064 57.220 158.544 55.985 C 157.608 55.225,156.028 54.750,154.434 54.750 L 151.845 54.750 152.171 51.860 C 152.851 45.827,156.046 37.440,157.745 37.229 C 160.111 36.935,160.922 35.154,159.437 33.513 C 157.408 31.271,144.104 32.236,141.435 34.818 C 138.872 37.298,140.015 38.979,143.848 38.367 C 146.352 37.966,146.370 37.978,145.916 39.754 C 145.664 40.740,145.219 44.010,144.927 47.021 C 144.635 50.032,144.370 52.713,144.340 52.979 C 144.188 54.285,141.508 56.039,139.664 56.039 C 138.541 56.039,137.098 56.513,136.457 57.093 C 134.786 58.605,134.379 57.177,134.766 51.152 C 134.936 48.502,134.828 46.182,134.526 45.996 C 134.224 45.809,133.977 42.688,133.977 39.060 C 133.977 34.788,133.705 32.191,133.205 31.691 C 131.792 30.279,128.546 30.783,126.780 32.689 M274.216 37.872 C 269.724 46.322,268.353 48.688,266.067 51.934 C 264.852 53.660,262.647 56.896,261.167 59.125 L 258.476 63.178 258.062 60.162 C 257.835 58.504,257.649 56.199,257.649 55.040 C 257.649 52.878,254.740 49.597,252.823 49.597 C 251.702 49.597,247.122 54.812,245.805 57.588 C 244.587 60.154,241.821 61.360,242.440 59.055 C 242.647 58.281,242.825 56.055,242.835 54.106 C 242.859 49.527,243.573 48.256,245.261 49.784 C 247.407 51.726,248.643 50.680,254.583 41.900 C 257.426 37.699,258.112 38.695,257.705 46.430 C 257.313 53.891,264.124 55.305,266.370 48.229 C 266.610 47.472,267.789 45.224,268.990 43.233 C 270.190 41.242,271.178 39.179,271.186 38.647 C 271.216 36.589,275.053 31.415,275.980 32.184 C 276.698 32.780,276.382 33.797,274.216 37.872 M110.686 33.716 C 108.186 34.827,106.280 36.738,106.280 38.135 C 106.280 39.659,104.760 42.657,103.424 43.765 C 102.869 44.225,102.415 45.448,102.415 46.481 C 102.415 48.880,100.279 53.105,97.499 56.202 C 96.306 57.531,95.330 58.908,95.330 59.261 C 95.330 59.614,95.060 59.903,94.731 59.903 C 93.232 59.903,98.259 49.039,102.759 42.552 C 106.168 37.638,106.210 37.312,103.699 35.199 L 101.761 33.569 104.504 33.322 C 110.796 32.756,112.590 32.870,110.686 33.716 M99.195 34.049 C 99.195 34.736,91.436 35.493,90.520 34.895 C 90.154 34.656,91.159 34.287,92.754 34.074 C 97.361 33.460,99.195 33.453,99.195 34.049 M131.401 39.506 C 131.401 42.813,131.598 45.715,131.839 45.956 C 132.380 46.497,132.339 58.536,131.795 59.080 C 131.578 59.297,131.401 58.578,131.401 57.484 C 131.401 53.477,128.770 51.530,123.357 51.530 L 118.648 51.530 115.410 55.072 C 111.425 59.433,108.775 60.062,112.077 55.863 C 112.786 54.962,113.366 54.023,113.366 53.775 C 113.366 53.528,114.308 52.144,115.459 50.700 C 116.610 49.256,117.987 47.432,118.519 46.646 C 128.375 32.070,131.401 30.393,131.401 39.506 M154.828 36.232 C 153.368 37.892,150.238 46.979,149.651 51.263 C 149.125 55.100,150.994 57.327,154.740 57.327 C 156.244 57.327,157.083 57.584,156.844 57.971 C 156.625 58.325,155.775 58.615,154.954 58.615 C 154.134 58.615,152.195 59.082,150.645 59.652 C 146.950 61.012,139.949 60.998,138.579 59.628 C 137.658 58.707,137.752 58.615,139.614 58.615 C 144.213 58.615,147.493 53.544,147.500 46.423 C 147.502 44.499,147.850 41.969,148.273 40.800 C 148.964 38.887,148.892 38.514,147.551 37.087 L 146.060 35.499 149.519 35.260 C 151.422 35.129,153.682 34.967,154.541 34.902 L 156.102 34.783 154.828 36.232 M245.473 39.112 C 244.908 40.082,244.803 39.953,244.786 38.272 C 244.775 37.179,244.984 36.065,245.250 35.795 C 246.019 35.014,246.209 37.847,245.473 39.112 M123.726 42.995 C 120.666 46.565,120.590 46.966,122.621 48.874 C 123.796 49.978,124.575 50.207,126.003 49.868 C 130.525 48.796,132.291 44.178,129.266 41.336 C 127.186 39.382,126.697 39.528,123.726 42.995 M128.180 44.767 C 128.180 46.136,127.864 47.024,127.375 47.030 C 126.932 47.035,125.918 47.213,125.121 47.427 C 123.265 47.924,123.251 46.893,125.081 44.418 C 126.998 41.825,128.180 41.958,128.180 44.767 M285.458 44.003 C 283.560 46.023,284.987 49.597,287.691 49.597 C 288.515 49.597,291.143 46.832,291.143 45.964 C 291.143 43.341,287.320 42.022,285.458 44.003 M395.071 44.187 C 396.568 46.242,396.634 46.211,391.626 45.775 L 387.440 45.411 390.338 43.993 C 393.925 42.240,393.645 42.228,395.071 44.187 M223.077 46.063 C 221.952 46.570,220.848 47.282,220.623 47.647 C 220.398 48.011,219.397 48.309,218.398 48.309 C 217.400 48.309,216.222 48.744,215.781 49.275 C 215.234 49.934,213.772 50.242,211.185 50.242 C 209.097 50.242,206.742 50.576,205.949 50.986 C 205.157 51.395,204.074 51.932,203.543 52.179 C 203.011 52.426,202.490 53.323,202.385 54.172 C 202.191 55.741,201.763 56.802,198.777 63.133 C 197.855 65.087,197.099 66.971,197.097 67.320 C 197.094 67.669,195.357 70.129,193.237 72.786 C 191.116 75.443,189.379 77.799,189.377 78.022 C 189.374 78.246,187.744 79.657,185.755 81.159 L 182.138 83.890 182.577 87.774 C 182.905 90.671,182.801 91.795,182.169 92.196 C 180.643 93.163,179.710 92.782,179.710 91.192 C 179.710 90.333,178.880 87.507,177.865 84.912 C 176.850 82.317,175.834 79.658,175.607 79.005 C 175.380 78.351,174.613 77.664,173.903 77.479 C 171.523 76.856,171.293 66.280,173.564 61.888 C 175.394 58.350,172.831 56.647,169.851 59.420 C 161.918 66.804,163.802 89.533,172.347 89.533 C 174.351 89.533,174.889 90.609,173.853 92.544 C 172.587 94.908,174.082 97.069,178.748 99.622 C 184.950 103.015,185.694 102.618,186.862 95.297 C 187.283 92.658,188.034 90.026,188.531 89.448 C 189.101 88.784,189.279 87.775,189.011 86.710 C 188.613 85.122,188.725 85.024,190.944 85.024 C 195.216 85.024,199.384 81.481,202.048 75.584 C 202.663 74.222,203.740 72.452,204.441 71.650 C 205.425 70.525,205.541 70.018,204.951 69.428 C 203.731 68.207,204.037 67.043,206.441 63.768 C 207.681 62.079,208.696 60.084,208.696 59.334 C 208.696 58.271,209.092 57.971,210.499 57.971 C 211.491 57.971,212.578 57.709,212.915 57.389 C 213.658 56.682,225.230 55.395,230.843 55.395 C 235.483 55.395,236.614 54.591,237.290 50.814 C 237.805 47.934,237.263 47.464,232.206 46.399 C 226.112 45.116,225.249 45.084,223.077 46.063 M288.567 46.055 C 288.567 46.586,288.132 47.021,287.601 47.021 C 287.069 47.021,286.634 46.586,286.634 46.055 C 286.634 45.523,287.069 45.089,287.601 45.089 C 288.132 45.089,288.567 45.523,288.567 46.055 M386.420 46.144 C 386.567 46.272,385.576 46.377,384.216 46.377 C 382.782 46.377,381.203 46.850,380.455 47.504 C 379.747 48.124,379.317 48.341,379.500 47.987 C 379.684 47.633,380.016 46.831,380.239 46.206 C 380.605 45.176,385.249 45.130,386.420 46.144 M341.194 46.443 C 341.593 46.843,343.340 47.054,345.188 46.926 C 348.366 46.706,348.471 46.753,348.471 48.403 C 348.470 49.545,349.214 50.761,350.725 52.088 C 353.270 54.322,353.771 56.969,351.750 57.498 C 351.074 57.675,349.644 59.030,348.572 60.509 C 345.928 64.159,344.718 62.511,345.961 56.954 L 346.752 53.422 344.586 51.188 L 342.420 48.953 335.300 48.933 C 328.089 48.912,326.230 47.098,333.295 46.976 C 334.733 46.951,336.490 46.681,337.198 46.377 C 339.017 45.595,340.368 45.618,341.194 46.443 M77.421 49.789 C 76.289 50.957,75.362 52.383,75.362 52.957 C 75.362 54.859,74.596 56.039,73.361 56.039 C 72.630 56.039,72.141 55.587,72.139 54.911 C 72.138 54.291,71.563 52.842,70.861 51.691 C 69.472 49.414,69.575 49.191,71.467 50.372 C 72.499 51.017,73.225 50.858,75.806 49.421 C 79.782 47.209,79.897 47.235,77.421 49.789 M230.656 48.692 C 236.691 50.157,236.621 52.818,230.546 52.818 C 225.176 52.818,213.639 54.123,212.915 54.812 C 212.578 55.133,211.582 55.395,210.702 55.395 C 208.758 55.395,206.119 57.728,206.119 59.446 C 206.119 60.134,205.105 62.079,203.865 63.768 C 201.461 67.043,201.154 68.207,202.375 69.428 C 202.965 70.018,202.845 70.525,201.850 71.650 C 201.141 72.452,200.022 74.354,199.363 75.877 C 197.663 79.807,194.461 82.448,191.394 82.448 C 188.389 82.448,185.786 84.791,186.454 86.896 C 186.995 88.600,186.224 90.040,185.437 88.797 C 184.109 86.702,184.896 84.798,188.567 81.223 C 194.721 75.230,198.196 70.374,201.288 63.446 C 202.236 61.320,203.422 58.761,203.922 57.758 C 204.422 56.755,204.831 55.627,204.831 55.252 C 204.831 53.788,207.218 52.858,211.032 52.839 C 213.735 52.824,215.232 52.513,215.781 51.852 C 216.222 51.320,217.400 50.886,218.398 50.886 C 219.397 50.886,220.398 50.588,220.623 50.223 C 221.040 49.548,224.596 47.814,225.765 47.716 C 226.119 47.686,228.320 48.125,230.656 48.692 M371.280 62.913 C 372.324 62.512,372.087 63.667,370.643 66.023 C 370.208 66.731,369.656 68.256,369.415 69.411 C 368.991 71.441,367.833 74.303,366.353 76.973 C 365.960 77.681,365.274 79.420,364.827 80.837 C 363.077 86.391,364.227 74.935,366.282 66.345 C 367.546 61.056,367.668 60.878,369.122 62.194 C 369.782 62.791,370.753 63.115,371.280 62.913 M169.555 69.772 L 169.241 75.775 171.389 78.222 C 173.296 80.394,177.536 89.346,176.940 89.942 C 176.813 90.068,176.030 89.449,175.199 88.564 C 174.368 87.680,173.035 86.957,172.237 86.957 C 167.487 86.957,165.591 76.788,168.544 67.150 C 169.903 62.716,169.921 62.764,169.555 69.772 M180.786 95.330 C 181.161 95.330,182.246 94.719,183.196 93.972 L 184.923 92.613 184.571 94.294 C 184.377 95.218,184.069 96.699,183.885 97.585 C 183.465 99.607,183.330 99.597,179.227 97.243 C 177.104 96.026,175.845 94.869,175.845 94.136 C 175.845 92.155,176.650 92.022,178.412 93.711 C 179.342 94.601,180.410 95.330,180.786 95.330 " stroke="none" fill="white" fill-rule="evenodd"></path></g></svg>