<?xml version="1.0" encoding="UTF-8" standalone="no"?>
<!-- Created with Inkscape (http://www.inkscape.org/) -->

<svg
   xmlns:dc="http://purl.org/dc/elements/1.1/"
   xmlns:cc="http://creativecommons.org/ns#"
   xmlns:rdf="http://www.w3.org/1999/02/22-rdf-syntax-ns#"
   xmlns:svg="http://www.w3.org/2000/svg"
   xmlns="http://www.w3.org/2000/svg"
   xmlns:sodipodi="http://sodipodi.sourceforge.net/DTD/sodipodi-0.dtd"
   xmlns:inkscape="http://www.inkscape.org/namespaces/inkscape"
   version="1.1"
   id="svg10"
   width="828"
   height="225.33333"
   viewBox="0 0 828 225.33333"
   sodipodi:docname="outline2.svg"
   inkscape:version="0.92.3 (2405546, 2018-03-11)">
  <metadata
     id="metadata16">
    <rdf:RDF>
      <cc:Work
         rdf:about="">
        <dc:format>image/svg+xml</dc:format>
        <dc:type
           rdf:resource="http://purl.org/dc/dcmitype/StillImage" />
        <dc:title></dc:title>
      </cc:Work>
    </rdf:RDF>
  </metadata>
  <defs
     id="defs14" />
  <sodipodi:namedview
     pagecolor="#ffffff"
     bordercolor="#666666"
     borderopacity="1"
     objecttolerance="10"
     gridtolerance="10"
     guidetolerance="10"
     inkscape:pageopacity="0"
     inkscape:pageshadow="2"
     inkscape:window-width="1366"
     inkscape:window-height="705"
     id="namedview12"
     showgrid="false"
     inkscape:zoom="1.4625604"
     inkscape:cx="414"
     inkscape:cy="85.317366"
     inkscape:window-x="-8"
     inkscape:window-y="-8"
     inkscape:window-maximized="1"
     inkscape:current-layer="svg10" />
  <path
     style="fill:#000000;stroke-width:1.33333337"
     d="m 364.74322,214.64342 c -8.98092,-4.77508 -11.5549,-8.73926 -8.89796,-13.70376 2.1498,-4.01694 0.0321,-7.3674 -4.65655,-7.3674 -4.88887,0 -12.13417,-9.17804 -14.06845,-17.8213 -2.98471,-13.33709 3.66889,-39.1414 11.21448,-43.4925 5.10448,-2.94346 7.12238,-0.34635 4.16876,5.36533 -2.44983,4.73746 -4.21442,22.81692 -2.78344,28.51839 0.50912,2.02849 2.28357,4.05629 4.18066,4.77757 1.81286,0.68924 3.2961,1.91807 3.2961,2.73072 0,0.81265 1.8,5.97284 4,11.46708 2.2,5.49424 4,11.46303 4,13.26396 0,3.95276 2.76413,5.27932 6.6581,3.19533 2.62863,-1.4068 2.7922,-2.22756 1.97146,-9.89168 l -0.89503,-8.35758 6.82223,-5.00798 c 3.75224,-2.7544 7.35424,-5.99934 8.00448,-7.211 0.65022,-1.21165 4.53661,-6.40301 8.6364,-11.53634 4.09978,-5.13334 7.4575,-9.92472 7.4616,-10.64754 0.007,-1.19534 3.98768,-10.15771 8.79209,-19.79385 1.03509,-2.07609 1.882,-5.24492 1.882,-7.04184 0,-1.94756 0.94241,-3.5588 2.33333,-3.98928 1.28334,-0.39718 3.37519,-1.27835 4.64858,-1.95816 1.27338,-0.6798 5.84992,-1.236 10.17008,-1.236 5.35546,0 8.38298,-0.63639 9.51468,-2 0.91292,-1.1 3.35097,-2 5.4179,-2 2.06692,0 4.1345,-0.60909 4.59458,-1.35353 0.46009,-0.74445 3.0455,-2.28822 5.74536,-3.4306 4.46977,-1.8913 5.80324,-1.87921 14.90882,0.13517 14.4626,3.19948 13.58043,2.61647 12.5565,8.29822 -1.3553,7.5205 -2.55886,8.35074 -12.10564,8.35074 -11.22687,0 -33.73503,2.41691 -37.11752,3.98565 -1.46667,0.68021 -4.16667,1.41171 -6,1.62555 -2.40491,0.28051 -3.46359,1.31723 -3.80098,3.72213 -0.25721,1.83334 -2.50721,6.11372 -5,9.51197 -4.84565,6.60573 -5.46381,9.02325 -2.95001,11.53705 1.22089,1.22089 0.97973,2.27164 -1.05577,4.6 -1.45095,1.6597 -3.6804,5.32448 -4.95431,8.14392 -3.24933,7.19144 -9.87423,15.07888 -14.04524,16.72192 -1.93987,0.76414 -5.62703,1.5609 -8.19369,1.77058 -4.27246,0.34903 -4.64226,0.71439 -4.37768,4.32524 0.15894,2.1692 -0.50359,4.8692 -1.47231,6 -0.96872,1.13079 -2.46944,6.49672 -3.33493,11.9243 -0.8655,5.42757 -1.88836,10.37757 -2.27304,11 -1.24399,2.01281 -5.0437,1.09752 -12.99564,-3.13048 z m 11.92336,1.81625 c -1.19315,-1.93056 2.16722,-19.45241 4.1793,-21.79187 1.17726,-1.36881 1.57242,-3.34749 1.0176,-5.09554 -1.31482,-4.14264 2.68446,-8 8.29431,-8 8.04195,0 12.93721,-4.02927 18.2882,-15.05291 1.70497,-3.51243 4.17723,-7.57661 5.49388,-9.03151 1.83524,-2.0279 2.02788,-3.01132 0.82544,-4.21376 -2.51181,-2.51181 -1.87087,-4.93262 3.09817,-11.70182 2.56667,-3.4965 4.66667,-7.42964 4.66667,-8.74032 0,-3.61425 3.98704,-7.25968 7.93999,-7.25968 1.93966,0 4.09668,-0.54237 4.79334,-1.20527 1.55078,-1.4756 25.52984,-4.12806 37.31896,-4.12806 7.81687,0 8.61438,-0.255 8.61438,-2.75433 0,-1.51487 0.65986,-3.98728 1.46636,-5.49423 1.10208,-2.05927 1.07964,-2.50091 -0.0904,-1.77782 -0.8562,0.52916 -5.86606,-0.0422 -11.13303,-1.2697 -8.72841,-2.03419 -10.01096,-2.04789 -14.48515,-0.15473 -2.69985,1.14239 -5.28526,2.68616 -5.74536,3.4306 -0.46002,0.74445 -2.5276,1.35354 -4.59452,1.35354 -2.06693,0 -4.50498,0.9 -5.4179,2 -1.15495,1.39163 -4.22254,2 -10.08458,2 -4.63358,0 -8.82784,0.65227 -9.32054,1.44949 -0.49271,0.79722 -1.95206,1.17328 -3.243,0.83569 -1.78031,-0.46556 -2.18512,0.006 -1.67622,1.95191 0.36903,1.41113 -0.24633,4.48507 -1.36745,6.83097 -6.94412,14.53027 -8.97632,19.1167 -8.98783,20.2844 -0.007,0.72282 -2.1795,4.0142 -4.82753,7.3142 -2.64803,3.3 -7.12125,9.09604 -9.94052,12.88008 -2.81927,3.78404 -7.574,8.58404 -10.56607,10.66667 l -5.44012,3.78659 0.81524,8.16708 c 0.77208,7.73456 0.62452,8.31712 -2.78621,11 -1.9808,1.5581 -4.22331,2.83292 -4.98333,2.83292 -2.56402,0 -6.25851,-4.39151 -6.25851,-7.43924 0,-1.66427 -1.82608,-7.58636 -4.05796,-13.16022 -2.23188,-5.57385 -3.70072,-10.71232 -3.26408,-11.41881 0.43663,-0.70648 -0.0651,-0.95492 -1.11485,-0.55208 -1.10892,0.42553 -3.15523,-0.83793 -4.88352,-3.01527 -2.71466,-3.41997 -2.92031,-4.81748 -2.35159,-15.98045 0.4676,-9.17827 1.31567,-13.40634 3.39637,-16.93288 l 2.77316,-4.70015 -2.95294,1.34545 c -3.62194,1.65026 -8.46728,13.57037 -10.49824,25.82689 -2.50463,15.11493 3.45593,31.36009 11.50642,31.36009 1.64032,0 4.38954,1.49783 6.10936,3.32851 2.75624,2.93388 2.92524,3.70545 1.42548,6.50778 -2.71137,5.06626 -0.72757,7.86135 8.86972,12.49704 9.76544,4.71691 10.19747,4.8685 9.1791,3.22075 z m 366.58573,-25.46429 c -0.70164,-1.13528 0.93023,-19.41983 2.74497,-30.75646 0.88534,-5.53069 7.95632,-36.48832 10.50678,-45.99999 2.8876,-10.769 3.79492,-21.868708 1.96758,-24.070508 -3.10673,-3.74339 -5.25454,-1.81037 -10.81912,9.73716 -6.64608,13.791868 -8.57485,16.333348 -12.39569,16.333348 -4.01189,0 -6.06001,2.49874 -6.06001,7.39334 0,4.0741 -3.33042,8.60665 -6.32396,8.60665 -0.79602,0 -3.3197,3.04303 -5.60818,6.76228 -2.28848,3.71925 -4.88994,6.52596 -5.78104,6.23712 -0.89109,-0.28882 -2.70085,-2.78699 -4.02169,-5.55148 -2.10816,-4.41234 -2.20453,-5.90661 -0.78892,-12.23224 1.43991,-6.43417 1.35752,-7.48775 -0.76921,-9.83778 -2.08036,-2.29877 -4.42756,-2.6791 -18.54442,-3.00489 -15.55949,-0.35909 -16.17832,-0.48368 -16.58418,-3.33892 -0.5481,-3.85578 6.56686,-8.35553 13.22264,-8.36244 2.64056,-0.003 6.73886,-0.68052 9.10734,-1.50617 3.27902,-1.14307 5.03892,-1.10911 7.37734,0.14237 1.79501,0.96066 6.32089,1.44591 10.89265,1.16785 l 7.82163,-0.4757 0.66666,5.86456 c 0.99266,8.73219 3.75298,9.69597 10.7113,3.7399 4.16566,-3.56564 7.78784,-9.04177 13.603,-20.565398 10.01961,-19.85545 17.51473,-36.66269 22.61156,-50.70475 2.19577,-6.04947 4.53572,-11.33488 5.19989,-11.74536 0.66417,-0.41048 1.20759,-1.70097 1.20759,-2.86776 0,-1.16678 1.5701,-5.22228 3.48913,-9.01222 2.98679,-5.8987 4.04259,-6.89079 7.33333,-6.89079 4.70798,0 4.79479,0.82395 0.51087,4.84849 -2.65977,2.49873 -3.33333,4.42778 -3.33333,9.54661 0,7.48327 -1.45443,14.14373 -7.08678,32.45339 -2.25585,7.33333 -4.488,16.63333 -4.96033,20.66666 -1.07063,9.14245 -4.39411,26.262948 -8.17665,42.121018 -1.59014,6.66655 -2.50914,13.11655 -2.04222,14.33333 1.58922,4.14143 4.97355,2.33832 7.7349,-4.12101 1.48912,-3.48333 4.51464,-10.23333 6.72338,-15 7.77434,-16.777748 6.41039,-15.384488 14.59698,-14.910718 5.79193,0.335188 8.74965,-0.30411 14.29645,-3.09012 7.81544,-3.92546 11.31452,-3.92077 12.0366,0.0162 0.26747,1.45825 1.44913,3.736478 2.62593,5.062738 1.5051,1.69626 1.75699,3.01801 0.84935,4.45691 -1.01715,1.61253 -4.59751,2.12065 -16.91388,2.4004 -10.61499,0.24112 -16.31136,0.92568 -17.76899,2.1354 -2.51641,2.08844 -11.45145,19.5728 -13.932,27.26258 -0.94622,2.93333 -2.47054,6.53333 -3.38736,8 -0.91682,1.46667 -2.10214,4.74697 -2.63404,7.28957 -0.5319,2.54259 -1.46742,5.54259 -2.07896,6.66667 -2.63846,4.84989 -7.88238,17.08767 -7.88238,18.39521 0,0.7851 -1.17868,4.17721 -2.61928,7.538 -2.44435,5.70241 -5.5384,7.75816 -7.32523,4.867 z m 4.09964,-1.04578 c -0.99775,-0.99774 6.42116,-20.89472 11.09443,-29.75444 0.5929,-1.12408 1.52969,-4.10021 2.08173,-6.61365 0.89371,-4.069 3.6014,-10.46384 7.54829,-17.82701 2.00963,-3.74909 2.69654,-8.2917 0.9968,-6.59196 -0.76698,0.76699 -1.52924,2.31241 -1.69389,3.43428 -0.40652,2.76975 -3.47637,6.30877 -5.47244,6.30877 -2.86924,0 -5.63255,-4.54075 -5.27416,-8.66667 0.19111,-2.2 0.47279,-4 0.62595,-4 0.15317,0 0.43222,-1.2 0.62013,-2.66666 0.18791,-1.46667 0.72037,-4.46667 1.18325,-6.66667 0.65094,-3.09369 0.38766,-2.83222 -1.16198,1.154 -1.10199,2.83469 -1.70124,5.64323 -1.33168,6.2412 0.36957,0.59796 0.10253,1.43909 -0.59331,1.86917 -0.69589,0.43008 -1.23983,2.42154 -1.20875,4.42547 0.0311,2.00392 -1.15958,8.14349 -2.64592,13.64349 -1.48632,5.5 -3.39817,16 -4.24857,23.33334 -0.8504,7.33333 -2.01099,15.48333 -2.57908,18.1111 -0.78564,3.63404 -0.60157,4.77779 0.76891,4.77779 0.99101,0 1.57164,-0.2302 1.29029,-0.51155 z m -31.19543,-53.10384 c 1.99451,-3.28654 5.14451,-6.55272 7,-7.25818 2.68278,-1.01999 3.37363,-2.19745 3.37363,-5.7499 0,-4.99752 4.07673,-9.74341 9.00395,-10.48187 2.29646,-0.34418 4.49465,-3.41389 9.33333,-13.03381 7.52017,-14.951028 9.48948,-16.629938 14.255,-12.152958 2.77892,2.61066 3.24996,4.02308 2.65312,7.95538 -1.61219,10.621998 -1.83993,16.821678 -0.53539,14.574218 0.70458,-1.21381 1.22766,-3.61381 1.1624,-5.33333 -0.15001,-3.95362 1.14106,-12.408508 2.81883,-18.459728 0.71164,-2.56666 1.29724,-6.73058 1.30132,-9.25315 0.004,-2.52256 2.03717,-11.22256 4.51796,-19.33333 5.97287,-19.52789 7.48948,-26.27727 7.48948,-33.33035 0,-4.37902 0.88052,-6.92501 3.45185,-9.98086 1.89854,-2.25627 2.84747,-4.1023 2.10875,-4.1023 -1.80737,0 -6.45763,7.70931 -7.64052,12.66666 -0.52495,2.2 -1.48885,4.68214 -2.14203,5.51586 -0.65317,0.83372 -2.91274,6.23372 -5.02128,12 -5.01076,13.70314 -12.59885,30.66279 -22.64544,50.61336 -6.52282,12.953068 -9.41544,17.219668 -14.68933,21.666678 -3.61189,3.04559 -7.10485,5.53744 -7.76212,5.53744 -0.65728,0 -2.56957,-1.46312 -4.24957,-3.25139 -2.3012,-2.44952 -2.92076,-4.39716 -2.51215,-7.8972 0.47417,-4.06163 0.25324,-4.49108 -1.75691,-3.41528 -3.26193,1.74574 -13.6449,1.52689 -15.49845,-0.32667 -1.18739,-1.18739 -2.79156,-1.18739 -6.75469,0 -2.85863,0.85647 -7.04966,1.55721 -9.3134,1.55721 -5.30084,0 -10.5258,2.39717 -11.25246,5.16253 -0.50722,1.93027 1.14379,2.12574 14.90056,1.76408 l 15.47099,-0.40673 3.88607,4.05619 c 3.80226,3.9687 3.85188,4.20433 2.30048,10.92536 -1.23423,5.34696 -1.2265,7.86227 0.0349,11.35055 0.89127,2.46474 1.94995,4.46239 2.35263,4.43921 0.40268,-0.0232 2.36401,-2.73114 4.35852,-6.01769 z m 57.54904,-14.67609 c 0.45532,-1.18656 0.2318,-1.72176 -0.52401,-1.25464 -0.72493,0.44803 -1.31807,1.3792 -1.31807,2.06925 0,1.91791 0.9557,1.49528 1.84208,-0.81461 z m 26.76424,-15.79273 c 15.57172,-0.13968 17.95898,-1.01583 13.30099,-4.88162 -1.15099,-0.95523 -1.81515,-2.798168 -1.47591,-4.095418 0.58342,-2.23095 0.31775,-2.24117 -4.9073,-0.18886 -3.03826,1.19337 -6.8917,3.043378 -8.56322,4.111128 -2.19861,1.40447 -5.02202,1.70832 -10.209,1.09869 l -7.16989,-0.84268 -2.13036,6.25229 -2.13037,6.25227 3.94954,-3.7839 c 3.85034,-3.68885 4.33599,-3.78736 19.33552,-3.9219 z M 82.111297,179.30658 c -0.368759,-0.59667 -0.493479,-6.48098 -0.277155,-13.07626 0.296356,-9.03532 1.415943,-15.11394 4.541627,-24.65806 2.281572,-6.96667 4.683112,-14.46667 5.336756,-16.66667 5.015578,-16.88116 7.640873,-24.46044 9.467655,-27.333338 1.16576,-1.83333 3.26023,-6.63333 4.65438,-10.66667 1.39414,-4.03333 3.31728,-8.83333 4.27365,-10.66666 2.40274,-4.606 2.21972,-10.57213 -0.35461,-11.56 -3.57514,-1.37191 -20.415967,19.45829 -20.515179,25.37496 -0.02289,1.36489 -2.441613,5.34816 -5.374947,8.8517 -2.933333,3.503548 -5.333333,6.943828 -5.333333,7.645068 0,5.72913 -25.495588,9.70635 -45.333333,7.07183 -6.233334,-0.82781 -14.633334,-1.92776 -18.666667,-2.44433 -6.1313712,-0.78528 -7.3333332,-1.3763 -7.3333332,-3.60589 0,-3.60868 6.4083492,-4.37322 27.5012602,-3.28102 9.074306,0.46987 19.462396,0.50033 23.084641,0.0677 5.979251,-0.71419 6.683469,-1.1646 7.645117,-4.889698 0.58257,-2.25668 4.65937,-8.25668 9.059556,-13.33334 7.480855,-8.63093 15.684011,-19.00372 25.401346,-32.11966 2.263992,-3.05582 11.319672,-12.89922 20.123732,-21.87421 14.63961,-14.92384 16.18873,-16.13679 18.12994,-14.19559 1.9412,1.94121 1.87756,2.69211 -0.74484,8.78805 -1.57708,3.66601 -2.86741,7.31079 -2.86741,8.0995 0,1.30533 -2.49891,7.44761 -7.35221,18.07163 -1.00501,2.2 -2.53038,7.6 -3.38972,12 -0.85933,4.39999 -2.32527,9.49999 -3.25764,11.33333 -0.93237,1.83333 -3.66621,9.33333 -6.07519,16.66666 -2.40898,7.333338 -5.7608,16.462338 -7.44848,20.286658 -2.98056,6.754 -7.057392,20.97726 -7.561352,26.38002 -0.394885,4.23328 4.512622,3.30888 7.078502,-1.33334 1.21599,-2.2 3.57799,-4.68682 5.24888,-5.52627 2.82008,-1.4168 5.53635,-4.99423 7.44632,-9.80706 1.34196,-3.38155 7.62219,-15.26588 8.70733,-16.47724 1.01932,-1.13789 8.5916,0.69012 14.21181,3.43085 2.40227,1.17148 4.28655,0.7303 10.27742,-2.40632 6.90457,-3.61502 7.59386,-3.72799 11.72508,-1.9218 2.41409,1.05545 7.7895,1.94674 11.94537,1.98065 8.55595,0.0698 10.29603,1.02555 7.65685,4.20556 -1.54554,1.86227 -3.65162,2.0917 -13.40214,1.45999 -9.94935,-0.64459 -11.86534,-0.42144 -13.68964,1.5944 -1.16666,1.28914 -2.12119,3.37644 -2.12119,4.63845 0,4.55275 -3.95275,10.16213 -7.16092,10.16213 -3.23077,0 -7.50575,-3.70472 -7.50575,-6.50454 0,-3.05192 -4.06294,-9.49546 -5.98733,-9.49546 -2.81581,0 -4.87141,4.72293 -5.13044,11.78766 -0.15943,4.34834 -1.26664,7.61256 -3.69013,10.879 -1.90429,2.56667 -5.73682,8.41667 -8.51674,13 -3.09403,5.10123 -5.95568,8.33334 -7.37819,8.33334 -1.27809,0 -3.30664,1.5 -4.50789,3.33333 -1.20126,1.83333 -3.36175,3.33333 -4.801102,3.33333 -2.374715,0 -5.382538,3.74839 -10.164112,12.66667 -1.477346,2.75545 -6.394166,4.31364 -7.576249,2.40099 z m 6.260803,-4.8603 c 1.035925,-4.0536 8.615713,-12.87402 11.063228,-12.87402 1.124392,0 3.262482,-1.5486 4.751312,-3.44132 1.60526,-2.04076 3.62784,-3.20051 4.96967,-2.84962 1.2445,0.32546 2.2675,-0.076 2.27333,-0.892 0.0116,-1.63041 8.87216,-16.02793 12.27496,-19.94571 1.24488,-1.43328 2.23822,-5.22487 2.37735,-9.07439 0.24496,-6.77762 3.02697,-12.66861 6.63692,-14.05388 2.75477,-1.05711 6.92905,3.3825 9.08973,9.66751 1.22336,3.5585 2.78899,5.43884 5.02691,6.03735 1.99096,0.53247 3.32767,0.29122 3.45016,-0.62268 0.9332,-6.96281 2.39631,-10.44385 5.7334,-13.64099 3.7326,-3.57605 4.12923,-3.66117 9.88565,-2.12157 8.101,2.16669 12.9393,2.01738 16.03726,-0.49491 1.42349,-1.15438 1.76602,-1.67438 0.76117,-1.15555 -2.91617,1.50569 -13.77692,0.94427 -18.56225,-0.95953 -4.03107,-1.60372 -4.98126,-1.43627 -11.64374,2.05198 -4.79052,2.50816 -8.05478,3.4512 -9.61074,2.77652 -4.58352,-1.98744 -15.06607,-5.54657 -14.4132,-4.8937 0.36417,0.36418 -0.7904,3.42597 -2.56573,6.80398 -1.77533,3.37801 -3.56811,7.04184 -3.98395,8.14184 -1.90473,5.03838 -5.89105,10.15025 -9.15462,11.73942 -1.96466,0.95668 -3.5721,2.41801 -3.5721,3.2474 0,2.03405 -5.41001,7.67985 -7.35911,7.67985 -0.85852,0 -2.587567,-1.13442 -3.842337,-2.52092 -2.11727,-2.33956 -2.13027,-3.03502 -0.18069,-9.66667 1.15539,-3.93016 3.373217,-10.74575 4.928507,-15.14574 1.55531,-4.4 5.35704,-15.22766 8.4483,-24.061458 3.09127,-8.8338 6.23989,-17.2338 6.99695,-18.66667 0.75705,-1.43287 2.07826,-6.20522 2.936,-10.60521 0.85775,-4.4 2.38182,-9.8 3.38684,-12 4.8533,-10.62402 7.3522,-16.7663 7.3522,-18.07163 0,-0.78871 1.28175,-4.41351 2.84832,-8.05511 1.56656,-3.64159 2.51794,-6.95146 2.11414,-7.35525 -0.85175,-0.85176 -29.81874,28.5597 -34.9458,35.48199 -9.163267,12.3718 -17.443768,22.82865 -24.80201,31.32067 -4.441942,5.12637 -8.401264,10.9457 -8.798493,12.93184 -0.397229,1.986148 -1.869889,4.649788 -3.272577,5.919208 -2.5584,2.31532 -8.369342,2.47193 -49.920643,1.34536 -3.751243,-0.1017 -6.7773792,0.41156 -6.7777772,1.14959 -3.98e-4,0.73333 3.0492782,1.42577 6.7770572,1.53875 3.727777,0.11298 11.877777,0.91008 18.111111,1.77133 14.650786,2.02428 41.079169,-0.35698 42.331349,-3.81415 0.430808,-1.18943 3.082495,-4.94587 5.892636,-8.347648 2.810141,-3.40177 5.109348,-7.23095 5.109348,-8.50928 0,-1.27834 1.32072,-4.49507 2.934932,-7.1483 3.838843,-6.30977 17.163957,-21.49071 18.863527,-21.49071 2.65979,0 6.20134,4.50222 6.19334,7.87332 -0.005,1.90301 -0.7907,4.96001 -1.74706,6.79335 -0.95637,1.83333 -2.87951,6.63333 -4.27366,10.66666 -1.39414,4.03334 -3.48861,8.83334 -4.65437,10.66667 -1.826,2.871648 -4.659957,11.060988 -9.45886,27.333338 -0.648805,2.2 -3.23087,10.3 -5.737922,18 -2.875503,8.83163 -4.31344,15.49755 -3.895064,18.05652 0.364766,2.23108 0.110106,7.09961 -0.565902,10.81897 -1.112249,6.11947 -1.006737,6.7043 1.109703,6.15083 1.286349,-0.33639 2.669332,-1.90492 3.073295,-3.48563 z m 439.07857,-32.59351 c -1.48676,-1.64286 -2.54536,-5.99331 -3.12399,-12.83848 -0.78769,-9.31842 -1.20566,-10.50416 -4.18056,-11.85961 -2.95812,-1.34781 -3.68526,-1.05097 -6.92154,2.82557 -1.9889,2.38238 -4.43146,5.96519 -5.4279,7.9618 -2.44362,4.89637 -6.70529,9.63021 -8.66965,9.63021 -0.88272,0 -2.46972,1.30241 -3.52667,2.89425 -2.59648,3.91051 -5.60753,2.04404 -4.36601,-2.70638 0.89812,-3.43648 1.72053,-10.25718 4.68489,-38.854548 1.21867,-11.75645 1.95291,-14.51074 4.58183,-17.18712 2.00669,-2.04292 3.94012,-2.87649 5.38547,-2.32186 2.56177,0.98304 2.33506,4.63572 -1.23895,19.96217 -1.16967,5.015908 -1.78919,9.665918 -1.37671,10.333338 1.71866,2.78082 4.62038,0.77246 9.3237,-6.45319 5.94761,-9.137248 12.47558,-16.333338 14.81688,-16.333338 3.04713,0 4.82152,5.68096 4.76164,15.245188 -0.10054,16.068 3.97596,18.64308 10.16569,6.42149 4.87507,-9.625778 8.34888,-16.568018 12.37213,-24.725088 1.73391,-3.51546 4.35256,-7.89573 5.81923,-9.73393 2.59864,-3.25693 2.7772,-3.28696 7,-1.17727 2.38333,1.19071 4.33333,2.64285 4.33333,3.22698 0,1.22389 -8.97337,18.56585 -13.16184,25.436608 -1.5555,2.55165 -2.83044,5.65955 -2.83317,6.90645 -0.003,1.24689 -0.86063,2.74689 -1.9064,3.33333 -1.04577,0.58644 -3.55168,3.46625 -5.56868,6.39959 -10.29295,14.96906 -13.59756,20.30241 -14.05663,22.68614 -0.67728,3.51683 -4.12288,3.98101 -6.88609,0.9277 z m 4.93705,-0.83753 c -1.06725,-2.78124 17.99662,-31.01147 20.56896,-30.45898 0.81263,0.17454 1.13774,-0.56806 0.72248,-1.65021 -0.41526,-1.08215 0.74302,-4.52496 2.57395,-7.65068 6.65859,-11.367348 14.26659,-26.500708 12.89728,-25.654428 -0.77204,0.47716 -2.29619,0.12687 -3.38699,-0.77842 -1.61036,-1.33648 -2.31944,-1.18621 -3.7712,0.79918 -1.79604,2.45622 -5.32648,9.26947 -9.3015,17.95055 -4.91142,10.726068 -12.32446,23.217948 -14.57467,24.560098 -1.96747,1.1735 -2.99829,0.76823 -5.57147,-2.19043 -2.66934,-3.06923 -3.1741,-5.13002 -3.2658,-13.33334 -0.16868,-15.089348 -0.0665,-14.700098 -3.30417,-12.586188 -1.52777,0.9975 -5.80264,6.20458 -9.49969,11.571278 -8.38764,12.17566 -10.31114,13.53812 -13.96062,9.88865 -2.64173,-2.64173 -2.65921,-2.98475 -0.61082,-11.981498 4.63989,-20.37894 4.53781,-19.30816 1.69576,-17.78714 -3.71014,1.9856 -3.04208,-1.75054 -7.69879,43.056638 -0.67819,6.5256 -1.86395,12.4956 -2.63501,13.26667 -1.80207,1.80207 -1.79712,3.53527 0.0101,3.53527 0.77661,0 1.09076,-0.51981 0.69811,-1.15514 -0.80222,-1.29801 2.72569,-4.69486 6.12244,-5.89502 1.2279,-0.43385 3.21632,-2.86192 4.41868,-5.39572 2.79836,-5.89711 11.03899,-15.55412 13.27281,-15.55412 0.94396,0 3.20684,1.17246 5.02863,2.60547 2.84365,2.23683 3.43533,4.07621 4.18172,13 0.62509,7.4736 1.50249,10.86287 3.12233,12.06119 2.86772,2.12148 3.15648,2.093 2.26748,-0.22368 z m -243.1909,-1.66871 c -7.54356,-1.17864 -9.10812,-1.89863 -11.25894,-5.18118 -2.83409,-4.32537 -0.87648,-7.25976 4.84319,-7.25976 2.15841,0 5.0712,-0.61375 6.47284,-1.36389 4.9832,-2.66692 5.52651,-4.90769 8.23657,-33.969448 0.3654,-3.91851 0.26012,-3.99166 -5.16805,-3.59075 -6.87557,0.50781 -8.50903,-1.67302 -4.28999,-5.72754 2.78851,-2.67978 3.63424,-2.459758 17.26505,-3.220118 12.94371,-0.72204 17.10994,-1.216022 18.51663,0.478928 2.37632,2.8633 0.82606,5.79203 -3.33302,6.29665 -3.17704,0.38548 -3.9512,1.65946 -7.553,12.4295 -2.20722,6.600008 -4.09971,14.999848 -4.20554,18.666338 l -0.19241,6.66633 6.32728,0.72762 c 8.31231,0.95589 10.09481,2.74613 7.17352,7.20459 -1.52685,2.33027 -3.42641,3.40179 -6.03057,3.40179 -2.0909,0 -6.12706,0.81246 -8.96926,1.80546 -6.50216,2.27171 -13.52258,3.30916 -17.8343,2.63548 z m 17.8343,-5.30215 c 2.8422,-0.993 6.74787,-1.80546 8.67927,-1.80546 1.95084,0 4.18468,-1.07771 5.02592,-2.42475 1.37417,-2.20041 0.94301,-2.45432 -4.66015,-2.74437 -8.73684,-0.45225 -11.36077,-3.19804 -10.44724,-10.93241 0.91816,-7.77347 7.4647,-27.809238 10.12815,-30.997308 1.21084,-1.44933 3.21008,-2.20695 4.94745,-1.87483 2.06455,0.39467 2.7098,0.0213 2.21072,-1.27931 -1.14758,-2.99056 -30.84372,-0.93642 -34.3126,2.37346 -2.54042,2.42399 -2.48829,2.44604 2.5164,1.06418 4.487,-1.23892 5.44724,-1.07445 7.86959,1.34789 2.4522,2.4522 2.58011,3.25371 1.15025,7.20789 -0.8848,2.44689 -1.61208,7.706288 -1.61617,11.687568 -0.0153,14.90012 -5.82715,23.90533 -15.4282,23.90533 -4.42005,0 -5.98457,1.63155 -3.20928,3.34677 0.74529,0.46062 1.08108,1.28084 0.74619,1.82271 -0.3349,0.54187 1.88742,1.13251 4.93848,1.31253 3.05105,0.18003 5.82236,0.60232 6.15846,0.93843 0.8296,0.8296 8.98903,-0.74244 15.30276,-2.94832 z m 245.72126,3.97232 c -1.8845,-1.88449 -0.42639,-4.71316 14.37329,-27.88342 22.89271,-35.840638 21.37341,-33.894358 26.45848,-33.894358 6.36955,0 7.59403,1.98886 7.75737,12.6 0.42259,27.449848 3.16836,31.923268 10.93186,17.810258 2.54454,-4.62565 5.31585,-10.587708 6.15846,-13.249038 0.84262,-2.66132 2.70944,-5.90432 4.14851,-7.20665 1.43905,-1.30233 2.61647,-3.70841 2.61647,-5.34684 0,-4.20869 4.38428,-9.25722 7.12565,-8.20526 1.21423,0.46594 2.20768,2.04489 2.20768,3.50877 0,1.46388 1.2,3.30382 2.66667,4.08876 1.65069,0.88342 2.67437,2.80625 2.6869,5.04691 0.0263,4.68722 2.96003,14.46669 4.93138,16.438038 2.65586,2.65587 5.23836,0.32171 7.04061,-6.363568 2.49125,-9.24113 10.76764,-25.93416 13.24133,-26.70709 1.15488,-0.36085 3.53027,-1.34616 5.27864,-2.18956 2.74746,-1.32535 3.44811,-1.12799 5.16263,1.45423 1.648,2.48202 3.20452,2.9877 9.19632,2.9877 5.25883,0 7.4256,0.55521 7.99908,2.04966 1.19159,3.10523 -3.227,7.06546 -9.20144,8.24696 -4.627,0.91503 -5.80936,1.93745 -8.91893,7.71246 -1.97163,3.66168 -4.27588,7.85759 -5.12056,9.32426 -0.84467,1.46666 -2.76387,5.666658 -4.26488,9.333338 -1.50103,3.66667 -3.92207,8.88554 -5.38011,11.59749 -1.45804,2.71195 -2.65097,5.75736 -2.65097,6.76758 0,2.14521 -5.49614,7.63493 -7.64386,7.63493 -2.11589,0 -6.27557,-7.24389 -10.27586,-17.8949 -5.40838,-14.40013 -8.71827,-16.504678 -12.22294,-7.77177 -9.58012,23.8717 -11.03173,25.84697 -15.0652,20.49968 -1.2546,-1.66326 -3.90284,-3.04185 -6.16272,-3.20812 -3.76456,-0.27698 -3.9961,0.009 -4.62942,5.70844 -0.59259,5.33333 -1.03704,6 -4,6 -3.10186,0 -3.36179,-0.50925 -3.74304,-7.33333 -0.22535,-4.03334 -0.86994,-7.79792 -1.43243,-8.36576 -0.56249,-0.56783 -4.87812,-0.0649 -9.59029,1.11763 -7.45114,1.86987 -9.44672,3.09032 -15.31411,9.36575 -4.71544,5.04337 -7.75947,7.21571 -10.11112,7.21571 -1.85051,0 -3.76457,-0.4 -4.25345,-0.88889 z m 14.97164,-9.67852 c 5.27582,-5.70798 7.34009,-6.93577 14.67452,-8.72823 7.96674,-1.94698 8.70624,-1.93096 11.10586,0.24067 2.03371,1.84048 2.47906,3.73636 2.13162,9.07448 -0.3482,5.34985 -0.0181,6.74737 1.59304,6.74517 1.51736,-0.002 1.9009,-1.12779 1.51385,-4.44321 -0.69032,-5.91312 2.96328,-10.14859 7.72891,-8.95978 3.83349,0.95629 8.29045,4.51737 7.41888,5.92762 -0.31712,0.5131 0.19702,0.93291 1.14254,0.93291 0.94552,0 1.74602,-0.65 1.77888,-1.44444 0.11347,-2.74431 8.68264,-22.78522 10.73703,-25.11112 1.13353,-1.28333 2.76339,-2.33333 3.62189,-2.33333 2.98042,0 7.26664,6.10353 10.70935,15.24996 1.90388,5.05814 4.15641,10.44614 5.00561,11.97333 0.84922,1.52719 1.40799,3.25241 1.24172,3.83381 -0.60678,2.12182 5.24108,-1.96585 5.92891,-4.14432 0.39005,-1.23536 2.08337,-5.24611 3.76293,-8.91277 1.67956,-3.66667 4.0556,-9.06667 5.2801,-12 1.22448,-2.93335 2.91086,-6.533348 3.7475,-8.000008 0.83664,-1.46667 2.96212,-5.36667 4.72331,-8.66667 4.56968,-8.56241 6.4156,-10.23884 12.31224,-11.18175 2.94257,-0.47054 5.77479,-1.85286 6.47571,-3.16061 1.1201,-2.08989 0.57837,-2.27716 -5.37143,-1.85688 -6.93457,0.48984 -12.72663,-2.53502 -10.81029,-5.64562 0.50433,-0.81866 -0.75828,-0.39288 -2.80583,0.94618 -2.04756,1.33906 -4.56715,2.11065 -5.59911,1.71465 -1.03196,-0.396 -1.75036,-0.29159 -1.59645,0.23202 0.15391,0.5236 -1.41053,4.48584 -3.47652,8.80496 -2.06599,4.31913 -4.65753,10.91913 -5.75899,14.66667 -2.08214,7.084278 -5.03725,11.480388 -7.71721,11.480388 -4.51217,0 -11.29924,-14.986258 -9.64755,-21.302358 0.38854,-1.48573 0.24256,-2.41465 -0.32437,-2.06426 -1.70628,1.05454 -5.77011,-4.379 -4.92408,-6.58373 1.00248,-2.61239 0.27612,-2.59841 -2.36787,0.0456 -1.15238,1.15239 -2.09524,3.4594 -2.09524,5.12669 0,1.66729 -1.13061,4.05464 -2.51248,5.30521 -1.38186,1.25058 -3.78174,5.69357 -5.33305,9.87332 -3.38123,9.110198 -10.09507,20.071298 -12.9696,21.174358 -1.1542,0.44291 -3.18975,-0.32098 -4.59093,-1.72287 -2.08899,-2.09006 -2.67186,-5.41118 -3.4255,-19.518608 l -0.90818,-17 h -4.40726 c -3.85388,0 -4.86798,0.79522 -8.0767,6.33334 -2.0182,3.48333 -9.23854,14.903538 -16.04519,25.378248 -6.80665,10.4747 -13.27336,20.78071 -14.37045,22.90225 l -1.99471,3.85734 4.17757,-1.19811 c 2.29766,-0.65897 6.94032,-4.18717 10.31702,-7.84047 z m 18.06884,-20.1773 c -2.66044,-2.93974 -1.857,-5.74875 2.41501,-8.443468 1.617,-1.01997 2.86204,-0.73665 4.91089,1.117538 3.3849,3.06329 3.46072,5.00937 0.3064,7.86399 -3.18774,2.88487 -4.62638,2.78345 -7.6323,-0.53806 z m 7.15385,-2.9413 c 0.53065,-2.75545 -3.31841,-4.61214 -5.34989,-2.58066 -2.03148,2.03148 -0.17479,5.88055 2.58065,5.34991 1.27713,-0.24596 2.52329,-1.49212 2.76924,-2.76925 z m -407.04533,31.08066 c -2.014,-3.25872 7.48298,-24.41887 17.34482,-38.645858 9.1336,-13.17639 8.33362,-14.29895 -8.67058,-12.1668 -10.21495,1.28084 -11.29879,1.18185 -14.86522,-1.35767 -3.78612,-2.69595 -4.9415,-5.72379 -2.71032,-7.10274 1.38803,-0.85784 34.09286,-2.68486 49.13243,-2.74473 11.84347,-0.0471 15.53763,1.50637 12.44453,5.2333 -0.9387,1.13108 -3.66,2.05651 -6.04732,2.05651 -6.66633,0 -13.99957,3.53619 -13.99957,6.75077 0,3.31914 -3.08307,9.49506 -5.91208,11.842928 -1.14836,0.95305 -2.08792,3.4793 -2.08792,5.6139 0,4.84691 -5.80675,16.64574 -10.47976,21.29399 -1.93613,1.92587 -4.59825,5.07587 -5.91581,7 -2.38235,3.47908 -6.73204,4.65532 -8.2332,2.2264 z m 8.00789,-5.48318 c 1.06644,-2.06228 3.05789,-4.53601 4.42544,-5.4972 3.34299,-2.3496 9.52877,-14.79904 9.52877,-19.17747 0,-1.93519 1.50018,-5.30138 3.33372,-7.480428 1.83355,-2.17904 3.66928,-5.56566 4.07942,-7.5258 0.41013,-1.96015 1.21449,-4.46391 1.78746,-5.56391 1.58458,-3.04204 9.5391,-6.53086 15.05404,-6.60262 2.70672,-0.0352 5.28138,-0.64664 5.72146,-1.3587 0.50965,-0.82463 -5.14964,-1.04126 -15.58798,-0.59669 -9.01346,0.38389 -22.76041,0.81648 -30.54876,0.96133 -14.14412,0.26304 -16.1137,1.11853 -10.56013,4.58679 1.94011,1.21162 5.35313,1.25788 14.0768,0.19081 10.29536,-1.25933 11.78747,-1.16269 14.07985,0.91189 1.41027,1.27627 2.56412,3.01446 2.56412,3.86264 0,0.84818 -2.67996,5.40519 -5.95546,10.12668 -6.10076,8.793958 -14.1607,24.346898 -17.2222,33.232998 -1.6027,4.65185 -1.54999,4.9435 0.78305,4.3334 1.37577,-0.35977 3.37395,-2.34145 4.4404,-4.40372 z m 70.22088,5.1552 c -0.88,-0.88 -1.6,-3.61945 -1.6,-6.08766 0,-8.43457 -1.58337,-9.64567 -12.61048,-9.64567 h -9.84999 l -6.26506,7.33333 c -4.8471,5.67358 -7.11592,7.33333 -10.02442,7.33333 -2.06764,0 -4.11926,-0.58238 -4.55918,-1.29417 -1.6537,-2.67573 6.98964,-15.48195 32.69897,-48.447798 7.77164,-9.9652 8.32677,-10.39123 13.03048,-10 l 4.91301,0.40863 0.35442,13.33333 c 0.19492,7.33334 0.72018,14.233338 1.16726,15.333338 1.35342,3.33006 0.82636,25.74477 -0.69758,29.66667 -1.51886,3.90881 -3.9493,4.6748 -6.55743,2.06667 z m 4.4,-1.06667 c -0.45323,-0.73333 -0.42128,-1.98501 0.0709,-2.78151 1.18636,-1.91958 1.18788,-25.27237 0.001,-28.09286 -0.51062,-1.21424 -0.73588,-7.827688 -0.5006,-14.696558 l 0.42777,-12.48885 -4.29077,0.50413 c -3.62378,0.42576 -5.80006,2.47044 -14,13.15348 -5.34008,6.95715 -10.60923,13.984448 -11.70923,15.616238 -1.1,1.63177 -3.85032,5.32615 -6.11181,8.20973 -2.26094,2.88358 -4.5071,6.14287 -4.99092,7.24287 -0.48382,1.1 -2.33844,4.165 -4.1214,6.81112 l -3.24172,4.81112 3.74581,-0.81112 c 2.18393,-0.47291 6.36337,-3.72989 10.02343,-7.81112 l 6.27762,-7 h 9.77967 c 8.97704,0 10.00647,0.28833 12.54311,3.51314 1.68924,2.14753 2.76344,5.47322 2.76344,8.55556 0,4.25318 0.8678,5.75755 3.74536,6.4927 0.22661,0.0579 0.0412,-0.49474 -0.41203,-1.22807 z m -19.74764,-25.05447 c -1.2388,-1.36886 -2.25236,-2.97979 -2.25236,-3.57986 0,-1.97292 9.47344,-12.699008 11.21595,-12.699008 5.39034,0 8.19206,11.089938 3.78405,14.978298 -3.98176,3.51236 -10.17424,4.14414 -12.74764,1.30057 z m 11.51143,-2.91645 c 1.90922,-1.7808 0.41872,-9.972728 -1.89412,-10.410168 -2.7383,-0.51791 -9.69739,8.502878 -8.65506,11.219178 0.58955,1.53632 1.85488,1.81513 5.11762,1.12763 2.38394,-0.50233 4.82814,-1.37382 5.43156,-1.93664 z m 66.23621,4.12873 c -5.90269,-1.04285 -6.358,-4.63838 -0.66667,-5.26457 2.2,-0.24206 5.2,-1.53581 6.66667,-2.87498 2.87975,-2.62941 15.19004,-6.684928 20.29175,-6.684928 4.23892,0 15.04158,-11.12377 15.04158,-15.4887 0,-2.15491 1.02599,-3.63405 3.05608,-4.40589 3.70152,-1.40732 10.27726,-10.54285 10.27726,-14.27799 0,-1.48276 1.56365,-4.15051 3.4748,-5.92834 1.91113,-1.77783 3.99629,-4.58241 4.63366,-6.23241 0.63738,-1.65 2.22372,-3.02127 3.5252,-3.04725 3.6907,-0.0737 7.41898,-2.62043 17.01014,-11.61942 7.13541,-6.69486 9.73466,-8.33333 13.21986,-8.33333 4.75688,0 10.13634,4.5147 10.13634,8.50692 0,5.23288 2.63941,7.69874 7.76346,7.25297 4.68831,-0.40787 4.88524,-0.25859 4.49339,3.40609 -0.45911,4.29352 3.27329,9.13611 9.56301,12.4075 4.08391,2.1241 3.65183,3.4538 -2.04096,6.28098 -1.72262,0.8555 -3.31169,3.01905 -3.55893,4.84558 -0.24569,1.81497 -1.74569,4.79995 -3.33333,6.63329 -4.32655,4.99605 -6.07727,8.63797 -7.03671,14.63798 -0.47679,2.98162 -1.38807,5.74323 -2.02507,6.13692 -0.63701,0.3937 -1.1582,2.19923 -1.1582,4.012298 0,4.64062 -3.81972,5.72641 -6.87434,1.9541 -2.88984,-3.568808 -3.29824,-13.630718 -0.88076,-21.699568 1.14997,-3.83828 3.50542,-6.77281 8.68045,-10.81457 3.90623,-3.0508 7.43301,-6.58912 7.83731,-7.86293 1.14162,-3.59694 -13.23446,-19.69756 -17.58776,-19.69756 -0.55167,0 -2.41866,-1.32993 -4.14888,-2.95539 -3.85504,-3.62162 -7.3435,-2.07378 -8.36311,3.71075 -0.52885,3.00034 -1.57764,3.98906 -4.9666,4.68218 -2.36289,0.48326 -5.82388,1.87965 -7.69108,3.10309 -4.54765,2.97974 -11.28173,13.92064 -11.31323,18.38068 -0.0139,1.97338 -0.64964,3.97382 -1.41269,4.44541 -2.68601,1.66005 -7.94597,11.28537 -7.94597,14.54053 0,1.81146 -0.94408,3.8219 -2.09795,4.46764 -1.15388,0.64574 -2.80388,2.517 -3.66667,4.15835 -1.07052,2.03652 -4.95628,4.180058 -12.23538,6.749528 -5.86667,2.07089 -12.8974,4.72945 -15.62384,5.90791 -4.9855,2.15489 -12.39295,2.49534 -21.04283,0.96713 z m 2.66667,-2.82447 c 0,-0.73334 -1.5,-1.33334 -3.33334,-1.33334 -1.83333,0 -3.33333,0.6 -3.33333,1.33334 0,0.73333 1.5,1.33333 3.33333,1.33333 1.83334,0 3.33334,-0.6 3.33334,-1.33333 z m 26.5047,-4.00001 c 7.40003,-2.93334 14.36375,-5.333338 15.47495,-5.333338 1.11119,0 2.02035,-0.807 2.02035,-1.79334 0,-2.08966 4.54436,-6.55119 5.5988,-5.49675 0.39364,0.39365 0.43952,-0.72915 0.102,-2.4951 -0.59067,-3.08987 4.41188,-12.89096 7.57857,-14.84808 0.76299,-0.47159 1.38729,-2.40121 1.38729,-4.28804 0,-9.2026 15.69352,-25.84921 22.65339,-24.02916 1.77372,0.46384 2.17937,-0.009 1.672,-1.94926 -0.70692,-2.70325 4.23743,-9.10026 7.03372,-9.10026 0.85851,0 2.64691,1.2 3.97423,2.66666 1.32732,1.46667 2.98396,2.66667 3.68144,2.66667 2.16642,0 11.02354,7.62521 16.21221,13.95729 6.09093,7.43319 5.66931,9.37915 -3.63239,16.76483 -3.81036,3.02548 -7.63228,7.4007 -8.49316,9.72271 -2.37798,6.41406 -2.18696,18.94584 0.32714,21.459928 2.74233,2.74234 3.13192,2.64389 2.28924,-0.57853 -0.38458,-1.47057 -0.10667,-3.420568 0.61764,-4.333328 0.72425,-0.91276 1.71093,-3.84917 2.1926,-6.52536 1.10096,-6.11701 3.99901,-11.99124 7.46204,-15.12524 1.47212,-1.33225 2.67657,-3.72469 2.67657,-5.31653 0,-3.32506 5.80717,-9.38101 7.80916,-8.14371 0.73696,0.45546 1.77408,0.12561 2.30472,-0.73299 0.59496,-0.96266 0.38747,-1.20428 -0.54127,-0.63029 -1.93301,1.19467 -13.57261,-9.45812 -13.57261,-12.42193 0,-1.2266 0.6,-2.95018 1.33333,-3.83018 0.9697,-1.16364 0.89698,-1.23637 -0.26666,-0.26667 -4.55094,3.79244 -13.06667,-1.86654 -13.06667,-8.68322 0,-1.64464 -0.84469,-3.6913 -1.87711,-4.54812 -1.87348,-1.55485 -13.08216,-1.65412 -12.12622,-0.10739 0.62241,1.0071 -14.836,14.94357 -19.10086,17.22029 -1.7073,0.91142 -3.92674,1.34147 -4.93209,0.95568 -1.08308,-0.41561 -1.56995,-0.0292 -1.19484,0.94834 0.3482,0.90737 -1.18236,3.38907 -3.40124,5.51488 -2.21887,2.12581 -4.03431,5.19898 -4.03431,6.82926 0,3.74747 -10.31682,16.9565 -12.56881,16.09233 -1.13793,-0.43667 -1.49436,0.3338 -1.10257,2.38334 0.7809,4.08499 -12.60974,18.06127 -17.30446,18.06127 -8.06916,0 -22.35749,6.096868 -22.35749,9.539998 0,2.90556 12.49849,0.81681 25.17137,-4.20666 z"
     id="path20"
     inkscape:connector-curvature="0"
     sodipodi:nodetypes="ccssssscssssccsccccsccscsccssscscsscccsccccccscsscscsscsscccccssscccscsssccsssscccsccccsccsccsscssssscsccscccccccccsssssssscscssscccccccsscsccccccsccscssccccccscscccsscssccccsscssccssscsccssssccsccccccscsccccsccccscsssccccccssssscssssccssccssccsccscsccscsssssccscsscccscccssccccccscssccsccsscscscccscccsscccssscscsccccsssccccscscscscssscsscscccsccscccccscccsscsscscscscscscscsccscsccscsccsccssssssscccccccsccssccccscssccccscscccccscscscccssssssscscccssccccsccccsccsscccccccccsccscscscccssccccscsssscccccccsccscccssscccsscssccccscccccscsccsccscssscsscscccccscccsccsccsccsscscsccccsssccscccscssssscccsssccccccccsssccscccsccsccscssssssssscccsscscscsccccssscccsccsccccccsccsss" />
</svg>
