<?xml version="1.0" encoding="UTF-8" standalone="no"?>
<!-- Created with Inkscape (http://www.inkscape.org/) -->

<svg
   xmlns:dc="http://purl.org/dc/elements/1.1/"
   xmlns:cc="http://creativecommons.org/ns#"
   xmlns:rdf="http://www.w3.org/1999/02/22-rdf-syntax-ns#"
   xmlns:svg="http://www.w3.org/2000/svg"
   xmlns="http://www.w3.org/2000/svg"
   xmlns:sodipodi="http://sodipodi.sourceforge.net/DTD/sodipodi-0.dtd"
   xmlns:inkscape="http://www.inkscape.org/namespaces/inkscape"
   version="1.1"
   id="svg3737"
   width="828"
   height="225.33333"
   viewBox="0 0 828 225.33333"
   sodipodi:docname="outline.svg"
   inkscape:version="0.92.3 (2405546, 2018-03-11)">
  <metadata
     id="metadata3743">
    <rdf:RDF>
      <cc:Work
         rdf:about="">
        <dc:format>image/svg+xml</dc:format>
        <dc:type
           rdf:resource="http://purl.org/dc/dcmitype/StillImage" />
        <dc:title></dc:title>
      </cc:Work>
    </rdf:RDF>
  </metadata>
  <defs
     id="defs3741" />
  <sodipodi:namedview
     pagecolor="#ffffff"
     bordercolor="#666666"
     borderopacity="1"
     objecttolerance="10"
     gridtolerance="10"
     guidetolerance="10"
     inkscape:pageopacity="0"
     inkscape:pageshadow="2"
     inkscape:window-width="1366"
     inkscape:window-height="705"
     id="namedview3739"
     showgrid="false"
     inkscape:zoom="0.49275362"
     inkscape:cx="251.64706"
     inkscape:cy="112.66666"
     inkscape:window-x="-8"
     inkscape:window-y="-8"
     inkscape:window-maximized="1"
     inkscape:current-layer="svg3737" />
  <path
     inkscape:connector-curvature="0"
     id="path3749"
     d="m 366.38215,222.24471 c -9.10427,-5.11795 -11.71359,-9.36676 -9.02017,-14.68774 2.17933,-4.30536 0.0325,-7.8964 -4.72052,-7.8964 -17.27323,0 -19.7149,-55.46061 -2.89316,-65.71635 5.1746,-3.15481 7.2202,-0.37122 4.22602,5.75058 -5.17173,10.57389 -4.26565,33.40266 1.41641,35.68673 1.83775,0.73872 3.34137,2.0558 3.34137,2.9268 0,0.871 1.82472,6.40171 4.05495,12.29045 2.23021,5.88875 4.05494,12.28611 4.05494,14.21635 0,4.2366 2.8021,5.6584 6.74955,3.42478 2.66472,-1.50781 2.83054,-2.38751 1.99852,-10.60194 -0.90732,-8.95769 -0.90732,-8.95769 6.00861,-14.32525 3.8038,-2.95217 7.45526,-6.43011 8.11444,-7.72877 0.65914,-1.29866 4.59892,-6.86277 8.75502,-12.36471 4.15609,-5.50191 7.55993,-10.63734 7.56409,-11.41206 0.007,-1.28118 4.04245,-10.88707 8.91284,-21.21512 1.04932,-2.22517 1.90785,-5.62152 1.90785,-7.54748 0,-2.08739 0.95536,-3.81433 2.36538,-4.27571 1.30096,-0.42572 3.42155,-1.37015 4.71242,-2.09875 1.29089,-0.72863 5.93027,-1.32477 10.30977,-1.32477 5.42903,0 8.49814,-0.68207 9.64537,-2.1436 0.92546,-1.17897 3.39699,-2.14361 5.49231,-2.14361 2.09531,0 4.19128,-0.65282 4.65769,-1.45072 2.70505,-4.62755 10.5768,-5.95545 20.93787,-3.53205 14.66124,3.4292 13.76697,2.80434 12.72896,8.89405 -1.3739,8.06052 -2.594,8.95036 -12.27191,8.95036 -11.38107,0 -34.19838,2.59045 -37.62733,4.27183 -1.48681,0.72906 -4.2239,1.51309 -6.08242,1.74228 -2.43793,0.30066 -3.51116,1.41181 -3.85317,3.98939 -0.26076,1.96497 -2.54166,6.5527 -5.06868,10.19497 -4.91221,7.08003 -5.53885,9.67114 -2.99053,12.36544 1.23766,1.30856 0.99319,2.43476 -1.07028,4.9303 -1.47086,1.77886 -3.73095,5.7068 -5.02235,8.72867 -5.42921,12.70429 -12.54047,18.95628 -22.54438,19.82035 -4.33114,0.37408 -4.70603,0.76568 -4.43781,4.63581 0.16114,2.32495 -0.5105,5.21882 -1.49252,6.43081 -0.98203,1.21199 -2.50337,6.96321 -3.38075,12.7805 -2.32136,15.39141 -2.71827,15.6077 -15.4784,8.43458 z m 12.08711,1.94668 c -1.2095,-2.06918 2.197,-20.84919 4.23673,-23.3566 1.19343,-1.46712 1.59401,-3.58787 1.03157,-5.46143 -1.33287,-4.44011 2.72132,-8.57443 8.40824,-8.57443 8.15239,0 13.11491,-4.31859 18.53938,-16.13376 1.7284,-3.76465 4.2346,-8.12064 5.56934,-9.68 1.86046,-2.17352 2.05574,-3.22755 0.83679,-4.51633 -2.54633,-2.69217 -1.89657,-5.28681 3.14073,-12.54205 2.60191,-3.74757 4.73075,-7.96312 4.73075,-9.3679 0,-3.87377 4.0418,-7.78096 8.04905,-7.78096 1.96629,0 4.15294,-0.58132 4.85918,-1.29181 1.57207,-1.58155 25.8805,-4.42447 37.83154,-4.42447 7.92423,0 8.73268,-0.27331 8.73268,-2.9521 0,-1.62364 0.66894,-4.27358 1.48651,-5.88875 1.11721,-2.20711 1.09447,-2.68048 -0.0916,-1.90545 -0.86798,0.56714 -5.94662,-0.0452 -11.28595,-1.36088 -9.92271,-2.44499 -17.81675,-1.09351 -20.50838,3.5111 -0.46635,0.79789 -2.56232,1.45072 -4.65763,1.45072 -2.09532,0 -4.56685,0.96462 -5.49231,2.1436 -1.17082,1.49156 -4.28054,2.14361 -10.22309,2.14361 -4.69723,0 -8.94909,0.69911 -9.44857,1.55357 -0.49947,0.85446 -1.97885,1.25751 -3.28755,0.8957 -1.80475,-0.49899 -2.21512,0.006 -1.69922,2.09206 0.37408,1.51246 -0.24972,4.80711 -1.38624,7.32146 -7.03949,15.5736 -9.09962,20.48935 -9.11128,21.74089 -0.007,0.77472 -2.20944,4.30243 -4.89384,7.83938 -2.68438,3.53695 -7.21906,9.74917 -10.07705,13.80493 -2.85798,4.05574 -7.67803,9.2004 -10.71119,11.43257 -5.51485,4.05849 -5.51485,4.05849 -4.68841,12.81198 0.78268,8.28992 0.6331,8.91431 -2.82448,11.78983 -5.54793,4.61399 -11.39624,2.08039 -11.39624,-4.93706 0,-1.78377 -1.85117,-8.1311 -4.1137,-14.10516 -2.26253,-5.97408 -3.75155,-11.48151 -3.3089,-12.23874 0.44261,-0.75721 -0.0659,-1.02347 -1.13018,-0.59172 -7.64978,3.10365 -10.63389,-26.42623 -3.89145,-38.5084 2.81125,-5.03764 2.81125,-5.03764 -0.18226,-3.59557 -14.6669,7.06549 -13.7627,61.2932 1.02202,61.2932 5.09852,0 9.73535,6.39985 7.63835,10.54258 -2.74862,5.43004 -0.73757,8.42581 8.99154,13.39438 9.89957,5.05558 10.33752,5.21805 9.30515,3.45201 z m 371.62085,-27.29274 c -0.71127,-1.21679 0.94301,-20.81424 2.78268,-32.96486 0.89747,-5.92782 8.06557,-39.10831 10.65107,-49.30297 2.92725,-11.54223 3.84702,-23.438938 1.99459,-25.79884 -3.14941,-4.012168 -5.32672,-1.940355 -10.96774,10.436339 -6.73735,14.782141 -8.69259,17.506111 -12.5659,17.506111 -4.06705,0 -6.14328,2.67817 -6.14328,7.92422 0,4.36663 -3.37613,9.22463 -6.4108,9.22463 -0.80695,0 -3.36528,3.26153 -5.6852,7.24783 -4.79357,8.23676 -6.49055,8.36225 -9.93741,0.73487 -2.13706,-4.72915 -2.2348,-6.33072 -0.79973,-13.11055 2.56533,-12.11978 0.93748,-13.26423 -19.5789,-13.76482 -15.77322,-0.38487 -16.40053,-0.5184 -16.81197,-3.57867 -0.55562,-4.13264 6.65705,-8.95547 13.40425,-8.96288 2.67683,-0.003 6.83142,-0.72937 9.23243,-1.61433 3.32408,-1.225127 5.10817,-1.188727 7.47866,0.15262 1.81966,1.02964 6.40768,1.54971 11.04224,1.25171 7.92909,-0.50986 7.92909,-0.50986 8.60488,5.77578 2.61343,24.30675 27.24269,-13.167035 47.57039,-72.379154 2.22595,-6.483834 4.59802,-12.148758 5.27134,-12.588713 0.6733,-0.439954 1.22416,-1.823107 1.22416,-3.073668 0,-6.134979 7.02227,-17.0449108 10.97115,-17.0449108 4.77266,0 4.86062,0.8831138 0.51785,5.1966265 -2.69629,2.6781483 -3.37908,4.7457173 -3.37908,10.2320953 0,8.020599 -1.47441,15.159296 -7.18412,34.783647 -2.28687,7.859897 -4.54965,17.827662 -5.02848,22.150601 -1.08535,9.798911 -4.45445,28.148726 -8.28892,45.145446 -4.08577,18.11033 -0.14691,25.58122 5.77081,10.94561 1.5096,-3.73346 4.57664,-10.96815 6.81577,-16.07707 7.88108,-17.982429 6.49839,-16.489124 14.79747,-15.981337 5.87149,0.35925 8.86982,-0.325947 14.49278,-3.312008 7.92278,-4.207316 11.46994,-4.202284 12.20196,0.0173 0.2711,1.562955 1.469,4.004765 2.662,5.426265 4.48442,5.34345 0.95661,6.93561 -16.28515,7.34968 -10.76078,0.25842 -16.53544,0.99213 -18.0131,2.28873 -2.55097,2.23839 -11.60876,20.97817 -14.12338,29.22011 -0.95922,3.14397 -2.50443,7.00246 -3.43383,8.57444 -0.92947,1.57197 -2.13106,5.08782 -2.67023,7.81299 -0.53925,2.72515 -1.48763,5.94056 -2.10754,7.14535 -2.67469,5.19813 -7.99062,18.31463 -7.99062,19.71606 0,7.1828 -7.71024,17.35162 -10.0811,13.2957 z m 4.15594,-1.12086 c -1.01149,-1.06939 6.50936,-22.39504 11.24676,-31.89091 0.60107,-1.20479 1.55074,-4.39462 2.11036,-7.08854 0.90598,-4.36117 3.65084,-11.21517 7.65197,-19.10704 2.03722,-4.01829 2.73353,-8.88708 1.01049,-7.0653 -0.77755,0.82207 -1.55022,2.47847 -1.71716,3.68088 -0.84195,6.06505 -5.88062,8.39277 -9.22323,4.26088 -1.56581,-1.93552 -2.42113,-11.07529 -1.0364,-11.07529 0.15522,0 0.43817,-1.28619 0.62861,-2.85815 0.19051,-1.57198 0.73026,-4.78738 1.19952,-7.14537 0.65986,-3.31581 0.393,-3.03556 -1.17792,1.23687 -1.11715,3.03822 -1.72467,6.04845 -1.35002,6.68934 0.37465,0.6409 0.10397,1.54244 -0.60142,2.00339 -0.70546,0.46095 -1.25688,2.59542 -1.22538,4.74322 0.0311,2.14782 -1.17551,8.72824 -2.68225,14.62315 -1.50677,5.89492 -3.44481,17.14887 -4.30694,25.00875 -0.86205,7.8599 -2.03857,16.5951 -2.61449,19.41156 -0.79641,3.89498 -0.60986,5.12085 0.77948,5.12085 1.00461,0 1.59322,-0.24673 1.30802,-0.54829 z m -31.62392,-56.91688 c 2.02193,-3.52253 5.21516,-7.02322 7.09613,-7.77934 2.71967,-1.09324 3.41996,-2.35524 3.41996,-6.16277 0,-5.35635 4.13279,-10.44301 9.12762,-11.23451 2.328,-0.36889 4.55644,-3.659 9.46155,-13.96966 7.62348,-16.024565 9.61982,-17.824021 14.45077,-13.025585 2.81711,2.798114 3.2946,4.311954 2.68956,8.526608 -1.6343,11.384667 -1.86518,18.029507 -0.54271,15.620677 0.71425,-1.30097 1.24449,-3.87331 1.17834,-5.71626 -0.15205,-4.23751 1.15675,-13.29948 2.85755,-19.785195 0.72139,-2.750965 1.31503,-7.213875 1.31922,-9.917562 0.007,-2.703706 2.06512,-12.028388 4.58002,-20.721534 6.0549,-20.930061 7.59232,-28.164074 7.59232,-35.723586 0,-4.69345 0.89266,-7.422247 3.49931,-10.6975247 1.92459,-2.4182737 2.88658,-4.3968623 2.1377,-4.3968623 -1.83217,0 -6.54637,8.262874 -7.74546,13.576173 -0.53216,2.357973 -1.50931,5.018336 -2.1715,5.911925 -0.66211,0.893582 -2.95273,6.681326 -5.09023,12.86164 -15.29017,44.209886 -36.77398,83.405016 -45.71633,83.405016 -3.31478,0 -7.38962,-7.1034 -6.85456,-11.94909 0.48066,-4.35325 0.25673,-4.81354 -1.78105,-3.6605 -3.3067,1.8711 -13.83229,1.63652 -15.71128,-0.35012 -1.20369,-1.27265 -2.82993,-1.27265 -6.84749,0 -2.8979,0.91796 -7.14649,1.66902 -9.44134,1.66902 -5.37363,0 -10.67036,2.56928 -11.40699,5.53322 -0.51421,2.06886 1.15948,2.27835 15.10522,1.89073 20.19107,-0.56122 24.77577,2.7009 21.95497,15.62135 -1.25115,5.73089 -1.2433,8.42681 0.0354,12.16555 2.08586,6.09878 2.37255,6.02749 6.80336,-1.69181 z m 56.47209,-11.36844 c 0,-0.393 -0.30411,-0.71454 -0.6758,-0.71454 -0.37173,0 -0.67585,0.32154 -0.67585,0.71454 0,0.39299 0.30412,0.71453 0.67585,0.71453 0.37169,0 0.6758,-0.32154 0.6758,-0.71453 z m 1.86738,-4.36144 c 0.46162,-1.27177 0.23499,-1.8454 -0.53117,-1.34472 -0.73493,0.48018 -1.33621,1.47821 -1.33621,2.21782 0,2.05563 0.96885,1.60264 1.86738,-0.8731 z m 2.18756,-4.213 c 0,-0.39299 -0.30411,-0.71453 -0.67579,-0.71453 -0.37175,0 -0.67586,0.32154 -0.67586,0.71453 0,0.39299 0.30411,0.71453 0.67586,0.71453 0.37168,0 0.67579,-0.32154 0.67579,-0.71453 z m 1.35166,-2.85814 c 0,-0.393 -0.30411,-0.71454 -0.67579,-0.71454 -0.37175,0 -0.67587,0.32154 -0.67587,0.71454 0,0.393 0.30412,0.71454 0.67587,0.71454 0.37168,0 0.67579,-0.32154 0.67579,-0.71454 z m 23.59265,-9.85557 c 15.78564,-0.1497 18.20565,-1.08876 13.48369,-5.23212 -1.16679,-1.023829 -1.84011,-2.999082 -1.49619,-4.389488 0.68782,-2.780751 -6.66553,-0.516989 -13.65551,4.203908 -2.22879,1.50531 -5.09101,1.83098 -10.34923,1.17758 -7.26839,-0.90319 -7.26839,-0.90319 -9.42799,5.79802 -2.15967,6.7012 -2.15967,6.7012 1.84416,2.6456 3.90324,-3.95371 4.39554,-4.05928 19.60107,-4.2035 z M 79.868276,184.37055 c -2.189846,-3.74618 0.367944,-27.67529 4.323042,-40.44376 2.312916,-7.46691 4.747441,-15.50543 5.410062,-17.86339 5.084462,-18.0933 7.74582,-26.216775 9.597689,-29.295973 1.181781,-1.964959 3.305001,-7.109614 4.718291,-11.432552 1.4133,-4.322948 3.36286,-9.467606 4.33236,-11.432574 2.43574,-4.93673 2.25021,-11.331244 -0.35948,-12.390043 -3.62426,-1.470426 -20.696374,20.855455 -20.796946,27.196959 -0.02325,1.4629 -2.475144,5.732181 -5.448779,9.487296 -2.973615,3.755117 -5.406583,7.442407 -5.406583,8.193997 0,6.1405 -25.84577,10.40329 -45.955983,7.57961 -6.318956,-0.88727 -14.834329,-2.06618 -18.923059,-2.61984 -6.2155888,-0.84167 -7.4340554,-1.47513 -7.4340554,-3.86482 0,-3.86776 6.4963634,-4.6872 27.8789914,-3.51658 24.201658,1.32495 29.79289,0.39732 31.151834,-5.168284 0.59057,-2.418722 4.723367,-8.849538 9.183982,-14.290715 C 79.723254,75.259222 88.039085,64.141628 97.889878,50.083919 108.63598,34.748528 134.41877,9.0450945 136.66896,11.424184 c 1.96786,2.080591 1.90336,2.885409 -0.75508,9.419062 -1.59874,3.929249 -2.90679,7.835726 -2.90679,8.681068 0,1.399065 -2.53323,7.982379 -7.45318,19.369241 -1.01882,2.357965 -2.56515,8.145701 -3.43628,12.861638 -0.87114,4.715937 -2.35722,10.182132 -3.3024,12.147108 -0.94517,1.964968 -3.71656,10.003492 -6.15862,17.863383 -2.44207,7.859898 -5.83993,17.644376 -7.55079,21.743306 -3.02149,7.23895 -7.154314,22.48348 -7.665203,28.27419 -0.400295,4.53725 4.574613,3.54646 7.175723,-1.42908 1.2327,-2.35796 3.62713,-5.02334 5.32097,-5.92307 2.85881,-1.51853 5.61239,-5.35284 7.54858,-10.51125 1.36042,-3.62436 7.7269,-16.36203 8.82695,-17.66036 1.03331,-1.21958 8.7096,0.73967 14.407,3.6772 2.43527,1.2556 4.34544,0.78273 10.41858,-2.57911 6.99942,-3.87456 7.69818,-3.99566 11.88612,-2.05978 2.44726,1.13123 7.8965,2.08653 12.10945,2.12287 8.67346,0.0747 10.43746,1.09918 7.76203,4.50753 -1.56679,1.99596 -3.7018,2.24189 -13.58622,1.56482 -12.44213,-0.85227 -16.02799,0.64231 -16.02799,6.68038 0,4.87966 -4.00705,10.89181 -7.25929,10.89181 -3.27514,0 -7.60884,-3.97073 -7.60884,-6.97158 0,-14.07767 -10.77858,-11.72811 -11.27047,2.45679 -0.16162,4.66056 -1.28404,8.15917 -3.74081,11.66013 -1.93045,2.75099 -5.81563,9.02102 -8.63373,13.93347 -3.13652,5.46751 -6.03747,8.93169 -7.47953,8.93169 -1.29564,0 -3.35205,1.6077 -4.56981,3.57268 -1.21775,1.96497 -3.407904,3.57268 -4.867026,3.57268 -2.407328,0 -5.456476,4.01753 -10.303719,13.57617 -1.497632,2.9533 -6.481985,4.62339 -7.680309,2.57338 z m 6.346798,-5.20927 c 1.050155,-4.34467 8.734052,-13.79843 11.215177,-13.79843 1.139848,0 3.307299,-1.6598 4.816569,-3.68842 1.6273,-2.18729 3.67766,-3.43031 5.03792,-3.05422 1.26161,0.34882 2.29865,-0.0814 2.30456,-0.95605 0.0118,-1.74748 8.99402,-17.17881 12.44355,-21.37788 1.26198,-1.53619 2.26896,-5.60004 2.41001,-9.72597 0.58521,-17.11936 10.91441,-20.16532 15.94267,-4.70133 1.76285,5.42157 8.09943,9.70086 8.59349,5.80346 1.7553,-13.84686 6.96249,-19.40291 15.83359,-16.89435 8.21226,2.32225 13.11701,2.16222 16.25752,-0.53045 1.44305,-1.23727 1.79028,-1.79461 0.77162,-1.23853 -2.95623,1.61381 -13.96613,1.01208 -18.81721,-1.02842 -4.08644,-1.71888 -5.04966,-1.5394 -11.80365,2.19932 -4.85632,2.68826 -8.16542,3.69899 -9.74276,2.97588 -4.64647,-2.13014 -15.273,-5.94483 -14.61116,-5.24509 0.36918,0.39033 -0.80125,3.67197 -2.60096,7.29253 -1.79971,3.62057 -3.61712,7.54747 -4.03868,8.72645 -1.93089,5.40016 -5.97197,10.87908 -9.28035,12.58236 -1.99165,1.02538 -3.62117,2.59162 -3.62117,3.48057 0,2.1801 -5.4843,8.23129 -7.46018,8.23129 -6.923596,0 -6.721656,-6.44521 0.91793,-29.29597 1.57665,-4.71594 5.4306,-16.32104 8.56432,-25.789127 3.13372,-9.468095 6.3256,-18.471243 7.09305,-20.007007 0.76745,-1.535754 2.10679,-6.650766 2.97632,-11.366703 0.86953,-4.715937 2.41454,-10.503673 3.43336,-12.861638 4.91996,-11.386862 7.45319,-17.970176 7.45319,-19.369241 0,-0.845342 1.29936,-4.730411 2.88745,-8.633487 1.58807,-3.903071 2.55251,-7.450599 2.14316,-7.883388 -0.86345,-0.912915 -30.2283,30.610385 -35.425766,38.029719 -9.289124,13.26014 -17.683356,24.467826 -25.142666,33.569603 -4.502958,5.494469 -8.516649,11.73165 -8.919338,13.860407 -1.736064,9.177512 -2.340744,9.264832 -53.923834,7.786172 -3.8027682,-0.10902 -6.8704693,0.44111 -6.8708734,1.23212 -3.96e-4,0.78599 3.0911658,1.52816 6.8701444,1.64924 3.778981,0.12109 12.040916,0.97544 18.359872,1.89851 14.852013,2.16964 41.643387,-0.3826 42.912767,-4.088 0.436726,-1.27483 3.124838,-5.301 5.973572,-8.947032 2.848743,-3.646022 5.179524,-7.750157 5.179524,-9.120273 0,-4.964554 18.523838,-30.695392 22.097848,-30.695392 5.27088,0 7.84094,8.963301 4.50735,15.719788 -0.9695,1.964968 -2.91905,7.109626 -4.33235,11.432574 -1.4133,4.322938 -3.53653,9.467593 -4.71829,11.432552 -1.85108,3.07785 -4.723962,11.855203 -9.588775,29.295973 -0.657714,2.35796 -3.275251,11.03958 -5.816742,19.29246 -2.914993,9.46576 -4.372677,16.61032 -3.948565,19.35303 0.369786,2.39127 0.111628,7.6094 -0.573668,11.59582 -1.318771,7.67137 2.46118,10.21771 4.240454,2.85657 z M 531.3244,144.22744 c -1.50717,-1.76082 -2.58033,-6.42364 -3.1669,-13.76033 -1.40645,-17.59168 -8.75774,-18.09584 -16.75704,-1.14923 -2.47718,5.24795 -6.79739,10.32169 -8.78872,10.32169 -0.89485,0 -2.50365,1.39594 -3.5751,3.10207 -2.63216,4.1913 -5.68457,2.19081 -4.42599,-2.90071 0.91044,-3.68323 1.74416,-10.99368 4.74923,-41.644417 1.58309,-16.146813 4.90417,-23.019542 10.1042,-20.909805 2.59697,1.053638 2.36715,4.968585 -1.25596,21.395532 -3.36052,15.2364 0.1276,17.03703 8.05614,4.15876 13.71644,-22.279481 19.97462,-22.647221 19.84742,-1.16629 -0.10189,17.22173 4.03057,19.98171 10.30532,6.88256 4.94204,-10.31693 8.46357,-17.757642 12.54207,-26.500418 5.89564,-12.637988 7.86102,-14.406664 12.99531,-11.694659 2.41605,1.276203 4.39285,2.832611 4.39285,3.458678 0,1.311774 -9.09662,19.898938 -13.34263,27.263049 -1.57687,2.73488 -2.86931,6.06592 -2.87208,7.40234 -0.003,1.33642 -0.87246,2.94413 -1.93259,3.57267 -1.06014,0.62855 -3.60045,3.71515 -5.64516,6.8591 -10.43432,16.04389 -13.78432,21.7602 -14.24969,24.31509 -0.68659,3.76936 -4.17952,4.26687 -6.98068,0.99432 z m 5.00486,-0.89767 c -1.0819,-2.98095 18.2438,-33.23819 20.85147,-32.64602 0.8238,0.18705 1.15338,-0.60886 0.73241,-1.76872 -0.42096,-1.15986 0.75323,-4.84985 2.60931,-8.2 6.75005,-12.183592 14.46254,-28.403571 13.07442,-27.496524 -0.78265,0.511419 -2.32772,0.135985 -3.43351,-0.834301 -2.72944,-2.394993 -5.00833,1.060772 -13.25226,20.096019 -13.71198,31.661036 -23.4591,35.638616 -23.73349,9.685166 -0.17101,-16.172821 -0.0674,-15.755611 -3.34956,-13.489912 -1.54876,1.069122 -5.88234,6.650084 -9.63017,12.402142 -8.50286,13.04989 -10.45277,14.51018 -14.15236,10.59866 -2.67804,-2.83141 -2.69574,-3.19906 -0.61922,-12.841786 4.70361,-21.842231 4.60013,-20.694563 1.71906,-19.064328 -3.76111,2.128181 -3.08387,-1.876231 -7.80454,46.148244 -0.68751,6.99416 -1.88955,13.39283 -2.6712,14.21926 -1.82684,1.93146 -1.82182,3.78912 0.0103,3.78912 0.78728,0 1.10575,-0.55715 0.7077,-1.23809 -0.81323,-1.39121 2.76313,-5.03197 6.20653,-6.31829 1.24478,-0.465 3.2605,-3.06742 4.47938,-5.78316 9.57508,-21.33382 21.10213,-21.30599 22.79197,0.055 0.63369,8.01023 1.52312,11.64286 3.16522,12.92723 2.90711,2.27381 3.19983,2.24328 2.29862,-0.23975 z m -246.53114,-1.78853 c -7.64717,-1.26326 -9.23322,-2.03496 -11.41359,-5.5532 -2.873,-4.63596 -0.8885,-7.78104 4.90971,-7.78104 10.83917,0 11.78265,-2.39616 14.91146,-37.870388 0.37042,-4.199869 0.26369,-4.278269 -5.23905,-3.848577 -6.96999,0.544274 -8.62589,-1.793134 -4.3489,-6.138799 4.24561,-4.313776 33.3432,-6.670591 36.27315,-2.938013 2.40895,3.068902 0.83739,6.207918 -3.37882,6.748774 -4.31229,0.553186 -11.58001,20.873843 -11.92003,33.328603 -0.19505,7.14501 -0.19505,7.14501 6.21914,7.92487 10.65384,1.29534 11.68045,11.36796 1.15863,11.36796 -2.1196,0 -6.2112,0.87079 -9.09244,1.93509 -6.59147,2.43482 -13.70833,3.54677 -18.07926,2.82472 z m 18.07926,-5.68287 c 2.88124,-1.0643 6.84054,-1.93509 8.79848,-1.93509 7.15212,0 7.49681,-5.15028 0.37079,-5.54029 -12.3503,-0.6759 -13.52089,-6.46891 -6.12173,-30.295303 4.32775,-13.936059 6.64048,-17.497993 10.81367,-16.654547 2.0929,0.423017 2.74702,0.02281 2.24107,-1.371162 -1.16334,-3.205295 -31.26735,-1.003664 -34.78388,2.543884 -2.57531,2.598041 -2.52246,2.621671 2.55097,1.140579 7.42032,-2.166204 11.59052,2.01605 9.14372,9.170123 -0.89695,2.622578 -1.63421,8.259626 -1.63835,12.526766 -0.0156,15.97 -5.90719,25.62181 -15.64012,25.62181 -4.48077,0 -6.06679,1.74871 -3.25337,3.58709 0.75553,0.49369 1.09594,1.3728 0.75644,1.95358 -0.33949,0.58078 1.91336,1.21384 5.00631,1.40678 3.09296,0.19294 5.90232,0.64557 6.24305,1.0058 0.841,0.88918 9.1125,-0.79575 15.51295,-3.16002 z m 249.09625,4.25755 c -1.91038,-2.0198 -0.43225,-5.05158 14.57071,-29.88554 23.20714,-38.414115 21.66698,-36.328079 26.8219,-36.328079 6.45702,0 7.69831,2.131662 7.86391,13.50472 0.42839,29.420839 3.21188,34.215469 11.082,19.089079 2.5795,-4.95777 5.38888,-11.347915 6.24306,-14.200337 0.85418,-2.852426 2.74665,-6.328274 4.20547,-7.724121 1.45884,-1.395847 2.65241,-3.974687 2.65241,-5.730763 0,-4.51089 4.4445,-9.921926 7.22352,-8.794415 1.2309,0.499397 2.23801,2.191709 2.23801,3.760698 0,1.568997 1.21649,3.541055 2.70329,4.382353 1.67337,0.946856 2.71111,3.007739 2.72381,5.409297 0.0888,16.788008 8.66379,24.417218 12.13643,10.797854 2.52547,-9.904669 10.91553,-27.796322 13.42321,-28.624757 1.17074,-0.386759 3.57875,-1.442817 5.35114,-2.346778 2.78519,-1.420517 3.49546,-1.208979 5.23353,1.558651 1.67063,2.660236 3.24853,3.202231 9.32263,3.202231 11.79071,0 10.85062,8.512382 -1.21888,11.035946 -4.69054,0.980739 -5.88913,2.076576 -9.04142,8.26625 -1.99871,3.924597 -4.33462,8.42179 -5.19091,9.99376 -0.85625,1.571989 -2.80182,6.073551 -4.32345,10.003491 -1.52164,3.92994 -3.97592,9.52356 -5.45399,12.43024 -1.47808,2.90667 -2.6874,6.17077 -2.6874,7.25351 0,2.29924 -5.57162,8.18315 -7.74883,8.18315 -2.14496,0 -6.36179,-7.76403 -10.417,-19.17983 -5.48267,-15.43408 -8.83803,-17.689753 -12.39083,-8.32979 -9.71171,25.58577 -11.18326,27.70286 -15.27212,21.97162 -4.40632,-6.17618 -10.15773,-4.76737 -10.94038,2.67985 -1.12358,10.69149 -7.26803,9.57281 -7.84939,-1.42907 -0.53988,-10.21669 -0.92863,-10.48697 -11.17412,-7.76857 -7.55348,2.00413 -9.57646,3.31222 -15.52443,10.03824 -6.47292,7.31964 -11.73493,9.77001 -14.56188,6.78111 z m 15.17727,-10.37347 c 13.01576,-14.88854 29.22845,-14.52809 28.29537,0.62907 -0.35298,5.73398 -0.0185,7.23185 1.61493,7.22949 1.5382,-0.002 1.92701,-1.20878 1.53465,-4.76224 -0.69982,-6.33771 3.00397,-10.87731 7.83507,-9.60312 3.88613,1.02494 8.40431,4.84172 7.52077,6.35323 -0.32147,0.54995 0.19974,0.99991 1.15824,0.99991 0.9585,0 1.76998,-0.69667 1.80332,-1.54817 0.11502,-2.94136 8.80189,-24.42126 10.88448,-26.91416 4.47262,-5.353763 9.34723,-0.70866 14.5281,13.84407 1.93002,5.42132 4.21348,11.1962 5.07435,12.83305 0.86088,1.63686 1.42734,3.48595 1.25877,4.10909 -0.61511,2.27418 5.31308,-2.10701 6.01035,-4.44188 0.39541,-1.32406 2.112,-5.62281 3.81461,-9.55276 1.70264,-3.92993 4.11131,-9.71768 5.35263,-12.86162 1.24129,-3.14397 2.95084,-7.002452 3.79897,-8.574441 0.84814,-1.57197 3.00281,-5.752009 4.78819,-9.28896 4.63243,-9.177228 6.50371,-10.974023 12.48135,-11.98464 8.68229,-1.46788 9.6285,-6.013258 1.11944,-5.377766 -7.02981,0.525018 -12.90143,-2.717038 -10.95878,-6.050992 0.51126,-0.877437 -0.7687,-0.421091 -2.84436,1.014118 -2.07567,1.43521 -4.62987,2.262207 -5.67601,1.837769 -1.04614,-0.424432 -1.77439,-0.31253 -1.61838,0.248678 0.15602,0.56121 -1.42991,4.807945 -3.52427,9.437196 -2.09437,4.629253 -4.72152,11.703155 -5.83808,15.719776 -2.11075,7.592962 -5.10644,12.304722 -7.82321,12.304722 -4.57416,0 -11.45444,-16.062313 -9.78006,-22.831941 0.39387,-1.59241 0.24589,-2.588031 -0.32883,-2.212488 -1.72972,1.13027 -5.84936,-4.693412 -4.99172,-7.056452 1.01625,-2.799972 0.27992,-2.784991 -2.40039,0.04889 -1.16822,1.235131 -2.12401,3.707794 -2.12401,5.494803 0,1.787018 -1.14614,4.345783 -2.54698,5.686146 -1.40086,1.340373 -3.83369,6.10239 -5.40632,10.582253 -10.70675,30.500109 -19.73106,30.469599 -21.27427,-0.07197 -0.92066,-18.220665 -0.92066,-18.220665 -5.38844,-18.220665 -3.90681,0 -4.93485,0.85233 -8.18765,6.788098 -2.04591,3.733452 -9.36542,15.973668 -16.26557,27.200486 -17.41336,28.33226 -17.72599,29.02549 -12.35498,27.39687 2.32922,-0.70626 7.03564,-4.48782 10.45872,-8.40344 z m 18.31702,-21.62609 c -4.47371,-5.22654 2.48316,-12.581913 7.42653,-7.85194 3.43139,3.28323 3.50825,5.36905 0.31061,8.42863 -3.23153,3.09201 -4.68993,2.9833 -7.73714,-0.57669 z m 7.25212,-3.15249 c 0.53794,-2.9533 -3.36401,-4.94331 -5.42338,-2.76597 -2.05939,2.17736 -0.17718,6.30279 2.61609,5.73405 1.29467,-0.26362 2.55796,-1.59925 2.80729,-2.96808 z m -412.63613,33.31236 c -2.04166,-3.49272 7.58578,-26.17225 17.58307,-41.420768 9.25904,-14.122498 8.44806,-15.325658 -8.78968,-13.040425 -13.15922,1.744549 -25.0795,-4.322261 -17.81694,-9.067882 3.86188,-2.523502 60.25662,-3.66243 62.52302,-1.262694 2.52321,2.671644 -0.99378,6.134118 -6.23068,6.134118 -6.75789,0 -14.19185,3.790099 -14.19185,7.235501 0,3.557469 -3.12542,10.176832 -5.99329,12.693289 -1.16413,1.021501 -2.11659,3.729121 -2.11659,6.016981 0,5.19495 -5.88651,17.84096 -10.62371,22.82298 -1.96272,2.06416 -4.66141,5.44034 -5.99708,7.50263 -2.41505,3.72889 -6.82449,4.98958 -8.34627,2.38627 z m 8.11789,-5.8769 c 1.08108,-2.21036 3.09989,-4.86173 4.48622,-5.89193 3.38891,-2.51831 9.65965,-15.86165 9.65965,-20.55447 0,-2.07414 1.52078,-5.68203 3.3795,-8.017534 1.85874,-2.335514 3.71968,-5.965292 4.13546,-8.066183 1.62875,-8.230256 7.75831,-12.911978 17.07281,-13.040136 2.7439,-0.03769 5.35392,-0.693066 5.80004,-1.456254 0.51667,-0.883832 -5.22038,-1.116029 -15.80206,-0.639532 -9.13728,0.411447 -23.07303,0.875112 -30.96836,1.030352 -14.3384,0.281936 -16.33503,1.198849 -10.70518,4.91614 1.96676,1.298624 5.42666,1.34821 14.27016,0.20451 18.26809,-2.362562 20.60496,1.081984 10.83531,15.971169 -6.18456,9.425388 -14.35519,26.095068 -17.45875,35.619238 -2.18808,6.71475 2.0033,6.65509 5.2952,-0.0755 z m 71.18537,5.52536 c -0.89209,-0.94319 -1.62199,-3.87934 -1.62199,-6.52477 0,-14.12621 -18.44001,-15.69563 -29.12008,-2.47838 -6.25485,7.74075 -12.45573,10.45566 -14.78391,6.47279 -1.6764,-2.86786 7.08566,-16.59362 33.1481,-51.926507 7.8784,-10.680731 8.44115,-11.137352 13.20945,-10.718033 4.9805,0.437971 4.9805,0.437971 5.33978,14.728687 0.1976,7.859889 0.73008,15.255333 1.1833,16.434323 1.372,3.56915 0.83771,27.5933 -0.70716,31.79683 -1.53973,4.18948 -4.00354,5.01046 -6.64749,2.21506 z m 4.46042,-1.14326 c -0.45946,-0.78599 -0.42707,-2.12754 0.072,-2.98124 1.20266,-2.0574 1.20421,-27.08702 0.002,-30.11001 -0.51763,-1.3014 -0.74599,-8.389749 -0.50749,-15.751817 0.69353,-21.407238 -8.3001,-16.010112 -29.97839,17.990207 -1.11511,1.74892 -3.90322,5.70858 -6.19577,8.79921 -2.29199,3.09063 -4.56899,6.58395 -5.05947,7.76294 -0.49046,1.17898 -2.37056,4.46406 -4.178,7.30018 -5.37405,8.4326 2.66442,5.35587 10.6721,-4.08479 11.55604,-13.62391 31.79465,-10.16581 31.79465,5.43266 0,4.55858 0.87971,6.17096 3.79679,6.95891 0.22973,0.062 0.0418,-0.53026 -0.41769,-1.31625 z m -20.01887,-26.85348 c -3.09514,-3.61599 -2.98574,-4.09992 2.53796,-11.226986 6.62926,-8.553558 12.75015,-6.961408 12.75015,3.316526 0,7.7639 -10.68239,13.29125 -15.28811,7.91046 z m 11.66955,-3.12585 c 1.93543,-1.90865 0.42445,-10.688796 -1.92014,-11.157645 -2.77592,-0.555092 -9.83059,9.113405 -8.77395,12.024735 0.80971,2.23089 8.1567,1.63517 10.69409,-0.86709 z m 67.14596,4.42519 c -5.98377,-1.11774 -6.44534,-4.97143 -0.67583,-5.64258 2.23022,-0.25944 5.27142,-1.64607 6.75824,-3.08142 2.91929,-2.81821 15.39866,-7.164924 20.57045,-7.164924 4.29714,0 15.24819,-11.922499 15.24819,-16.60085 0,-2.30963 1.04007,-3.89498 3.09805,-4.722228 3.75236,-1.508383 10.41841,-11.299876 10.41841,-15.303211 0,-1.589217 1.58513,-4.448524 3.52253,-6.354007 1.93739,-1.905483 4.05118,-4.911451 4.6973,-6.679933 0.64613,-1.768473 2.25427,-3.238195 3.57363,-3.266043 3.74139,-0.07899 7.52086,-2.80859 17.24377,-12.453733 11.67593,-11.582556 23.677,-11.488251 23.677,0.186049 0,5.60862 2.67567,8.251537 7.87008,7.77376 4.75272,-0.437146 4.95235,-0.277148 4.55511,3.650662 -0.4654,4.601811 3.31826,9.792103 9.69436,13.298395 4.14002,2.276629 3.702,3.70179 -2.06897,6.731982 -1.74631,0.916929 -3.35719,3.235829 -3.60783,5.193504 -0.24907,1.945296 -1.76968,5.144612 -3.37912,7.109588 -4.38598,5.354786 -6.16074,9.258207 -7.13335,15.689034 -0.48334,3.195709 -1.40714,6.15562 -2.05288,6.57758 -0.64576,0.421952 -1.17412,2.357139 -1.17412,4.300395 0,4.97382 -3.87217,6.13757 -6.96876,2.0944 -6.38486,-8.336638 -2.27765,-26.438955 7.90683,-34.848758 9.24929,-7.637567 9.73751,-9.531848 4.30047,-16.685064 -4.34512,-5.716644 -12.22163,-12.854375 -14.18485,-12.854375 -0.55924,0 -2.45187,-1.425408 -4.20586,-3.167582 -3.90799,-3.88167 -7.44437,-2.222687 -8.47798,3.977192 -0.53612,3.215777 -1.59931,4.27549 -5.03482,5.018374 -8.89775,1.924016 -19.20669,14.245525 -19.26533,23.026379 -0.0141,2.11507 -0.65857,4.259151 -1.4321,4.764599 -2.7229,1.779254 -8.05511,12.095698 -8.05511,15.584588 0,1.941537 -0.95704,4.096343 -2.12675,4.788444 -1.16974,0.692115 -2.84241,2.697724 -3.71704,4.456929 -1.08522,2.182754 -5.02435,4.480204 -12.40344,7.234164 -5.94725,2.21959 -13.07456,5.06903 -15.83843,6.33212 -5.05398,2.30962 -12.56317,2.67451 -21.33185,1.03657 z m 2.70328,-3.02728 c 0,-0.78599 -1.5206,-1.42907 -3.37911,-1.42907 -1.8585,0 -3.37912,0.64308 -3.37912,1.42907 0,0.78598 1.52062,1.42907 3.37912,1.42907 1.85851,0 3.37911,-0.64309 3.37911,-1.42907 z m 26.86875,-4.28721 c 7.50169,-3.14397 14.56104,-5.716287 15.6875,-5.716287 1.12645,0 2.04812,-0.864961 2.04812,-1.922126 0,-2.239696 4.60676,-7.021572 5.67567,-5.891428 0.39907,0.421918 0.44557,-0.781496 0.1034,-2.67425 -0.59876,-3.311743 4.4725,-13.81658 7.68268,-15.914234 0.77345,-0.505448 1.40634,-2.573618 1.40634,-4.595931 0,-9.863367 15.90908,-27.705272 22.96454,-25.754531 1.79808,0.49714 2.2093,-0.0097 1.69496,-2.089226 -1.5794,-6.38559 7.03782,-11.71042 11.15914,-6.895558 1.34556,1.571987 3.02496,2.858145 3.732,2.858145 2.1962,0 11.17497,8.172726 16.4349,14.959475 6.17458,7.966916 5.74718,10.052608 -3.68228,17.968604 -9.77222,8.203734 -14.4121,26.936391 -8.27818,33.421657 2.77998,2.93926 3.17493,2.83372 2.32068,-0.62007 -0.38985,-1.576162 -0.10814,-3.666177 0.62612,-4.644473 0.7342,-0.978304 1.73442,-4.125554 2.22272,-6.993907 1.11607,-6.556243 4.05394,-12.852257 7.56453,-16.211294 1.49233,-1.4279 2.71332,-3.992121 2.71332,-5.698273 0,-3.563807 5.88695,-10.054597 7.91645,-8.728452 0.74707,0.488164 1.79844,0.134635 2.33636,-0.785619 0.60313,-1.031783 0.39279,-1.290749 -0.5487,-0.675544 -4.22557,2.761138 -15.66014,-13.292179 -12.4074,-17.419076 0.98303,-1.247183 0.9093,-1.325135 -0.27032,-0.285813 -4.61345,4.064753 -13.24613,-2.000565 -13.24613,-9.306704 0,-1.762737 -0.8563,-3.956347 -1.9029,-4.874691 -1.8992,-1.666495 -13.26183,-1.772892 -12.29278,-0.115099 1.56502,2.677301 -21.10361,20.803476 -24.36303,19.481067 -1.09796,-0.445452 -1.59152,-0.0313 -1.21126,1.01643 0.35297,0.97253 -1.19859,3.63242 -3.44795,5.910877 -2.24935,2.278449 -4.08972,5.572282 -4.08972,7.319617 0,4.016559 -10.45853,18.174035 -12.74144,17.247815 -1.15358,-0.46803 -1.51489,0.357766 -1.11773,2.554472 0.79163,4.378304 -12.78292,19.35814 -17.54213,19.35814 -8.17998,0 -22.66458,6.534637 -22.66458,10.224987 0,3.11418 12.67017,0.87545 25.5171,-4.5087 z"
     style="fill:#000000;stroke-width:1.38981986" />
</svg>
